<svg xmlns="http://www.w3.org/2000/svg" xmlns:xlink="http://www.w3.org/1999/xlink" width="1080" height="888"><g transform="translate(-107.99999999999997 -12)"><path d="M335 784c-43.08 0-78-28.65-78-64 0-28.28 21.12-52.13 53.9-60.87C309 576 439 560 491 592c26-48 156-32 156 16 78-16 156 48 104 128 52 64 0 144-104 112-26 41.6-130 41.6-156 0-52 32-156 16-156-64z" stroke="#999" stroke-width="6" fill="none"/><use xlink:href="#a" transform="matrix(1,0,0,1,262,565) translate(255 160.4)"/><path d="M328 420c0 44.18-35.82 80-80 80s-80-35.82-80-80 35.82-80 80-80 80 35.82 80 80z" stroke="#fff" stroke-width="2" fill="#ba2b65"/><use xlink:href="#a" transform="matrix(1,0,0,1,173,345) translate(75 80.4)"/><path d="M608 420c0 44.18-35.82 80-80 80s-80-35.82-80-80 35.82-80 80-80 80 35.82 80 80z" stroke="#de5f85" stroke-width="2" fill="#de5f85"/><use xlink:href="#b" transform="matrix(1,0,0,1,453,345) translate(27.27777777777778 67)"/><use xlink:href="#c" transform="matrix(1,0,0,1,453,345) translate(39.44444444444444 91)"/><path d="M908 420c0 44.18-35.82 80-80 80s-80-35.82-80-80 35.82-80 80-80 80 35.82 80 80z" stroke="#7ab648" stroke-width="2" fill="#7ab648"/><use xlink:href="#d" transform="matrix(1,0,0,1,753,345) translate(47.25 67)"/><use xlink:href="#c" transform="matrix(1,0,0,1,753,345) translate(39.44444444444444 91)"/><path d="M308 420c0 44.18-35.82 80-80 80s-80-35.82-80-80 35.82-80 80-80 80 35.82 80 80z" stroke="#fff" stroke-width="2" fill="#ba2b65"/><use xlink:href="#a" transform="matrix(1,0,0,1,153,345) translate(75 80.4)"/><path d="M430 427c0 2.76-2.24 5-5 5h-61.33c-2.77 0-5 2.24-5 5v2.33c0 2.76-1.6 3.42-3.54 1.47l-17.6-17.6c-1.95-1.95-1.95-5.12 0-7.07l17.6-17.6c1.95-1.95 3.54-1.3 3.54 1.47v2.33c0 2.76 2.23 5 5 5H425c2.76 0 5 2.24 5 5z" stroke="#de5f85" stroke-width="3" fill="#fff"/><use xlink:href="#a" transform="matrix(6.123233995736766e-17,1,-1,6.123233995736766e-17,425.0011573934536,399.9999999999999) translate(20 48.9)"/><path d="M288 420c0 44.18-35.82 80-80 80s-80-35.82-80-80 35.82-80 80-80 80 35.82 80 80z" stroke="#fff" stroke-width="2" fill="#ba2b65"/><use xlink:href="#e" transform="matrix(1,0,0,1,132.99999999999997,345) translate(17.916666666666664 67)"/><use xlink:href="#f" transform="matrix(1,0,0,1,132.99999999999997,345) translate(8.444444444444443 91)"/><path d="M535.33 160c2.76 0 5 2.24 5 5v125.33c0 2.76 2.24 5 5 5h2.34c2.76 0 3.4 1.6 1.46 3.54l-17.6 17.6c-1.95 1.95-5.1 1.95-7.07 0l-17.6-17.6c-1.94-1.95-1.3-3.54 1.47-3.54h2.34c2.76 0 5-2.24 5-5V165c0-2.76 2.24-5 5-5z" stroke="#ba2b65" stroke-width="3" fill="#fff"/><use xlink:href="#a" transform="matrix(1,0,0,1,508.33333333333337,165.00000000000006) translate(20 80.4)"/><path d="M1026.42 188.62c1.95 1.95 1.95 5.12 0 7.07l-88.62 88.6c-1.96 1.96-1.96 5.13 0 7.08l1.65 1.65c1.95 1.96 1.3 3.54-1.47 3.54H913.1c-2.76 0-5-2.24-5-5v-24.9c0-2.75 1.58-3.4 3.53-1.45l1.65 1.65c1.96 1.95 5.12 1.95 7.07 0l88.63-88.62c1.95-1.96 5.12-1.96 7.07 0z" stroke="#7ab648" stroke-width="3" fill="#fff"/><use xlink:href="#a" transform="matrix(0.7071067811865476,0.7071067811865475,-0.7071067811865475,0.7071067811865476,1003.7932418923223,173.06055804767334) translate(20 80.4)"/><path d="M715.33 427.33c0 2.76-2.24 5-5 5h-40c-2.76 0-5 2.24-5 5v2.34c0 2.76-1.58 3.4-3.53 1.46l-17.6-17.6c-1.95-1.95-1.95-5.1 0-7.07l17.6-17.6c1.95-1.94 3.53-1.3 3.53 1.47v2.34c0 2.76 2.24 5 5 5h40c2.76 0 5 2.24 5 5z" stroke="#7ab648" stroke-width="3" fill="#fff"/><use xlink:href="#a" transform="matrix(6.123233995736766e-17,1,-1,6.123233995736766e-17,710.3333333333333,400.33333333333337) translate(20 37.9)"/><path d="M576.75 450c0-2.76 2.24-5 5-5h192.5c2.76 0 5 2.24 5 5v73c0 2.76-2.24 5-5 5h-192.5c-2.76 0-5-2.24-5-5z" fill="none"/><use xlink:href="#g" transform="matrix(1,0,0,1,581.75,450.00000000000006) translate(18.052469135802482 30.27777777777778)"/><use xlink:href="#h" transform="matrix(1,0,0,1,581.75,450.00000000000006) translate(76.64506172839506 30.27777777777778)"/><use xlink:href="#i" transform="matrix(1,0,0,1,581.75,450.00000000000006) translate(96.4783950617284 30.27777777777778)"/><use xlink:href="#j" transform="matrix(1,0,0,1,581.75,450.00000000000006) translate(115.40432098765433 30.27777777777778)"/><use xlink:href="#k" transform="matrix(1,0,0,1,581.75,450.00000000000006) translate(59.01543209876544 48.94444444444444)"/><path d="M988 117c0-2.76 2.24-5 5-5h170c2.76 0 5 2.24 5 5v64.8c0 2.76-2.24 5-5 5H993c-2.76 0-5-2.24-5-5z" fill="none"/><use xlink:href="#l" transform="matrix(1,0,0,1,993,117) translate(53.55 14.500000000000002)"/><use xlink:href="#m" transform="matrix(1,0,0,1,993,117) translate(98.5 14.500000000000002)"/><use xlink:href="#n" transform="matrix(1,0,0,1,993,117) translate(26.64999999999999 36.1)"/><use xlink:href="#o" transform="matrix(1,0,0,1,993,117) translate(52.574999999999996 57.7)"/><path d="M1168 464.8c0 6.2-22.4 11.2-50 11.2s-50-5-50-11.2v-89.6c0-6.2 22.4-11.2 50-11.2s50 5 50 11.2z" stroke="#fff" stroke-width="2" fill="#00624f"/><path d="M1168 375.2c0 6.2-22.4 11.2-50 11.2s-50-5-50-11.2" stroke="#fff" stroke-width="2" fill="none"/><use xlink:href="#p" transform="matrix(1,0,0,1,1073,391.4) translate(5.074999999999996 43.6)"/><path d="M841.33 160c2.76 0 5 2.24 5 5v125.33c0 2.76 2.24 5 5 5h2.34c2.76 0 3.4 1.6 1.46 3.54l-17.6 17.6c-1.95 1.95-5.1 1.95-7.07 0l-17.6-17.6c-1.94-1.95-1.3-3.54 1.47-3.54h2.34c2.76 0 5-2.24 5-5V165c0-2.76 2.24-5 5-5z" stroke="#ce6925" stroke-width="3" fill="#fff"/><use xlink:href="#q" transform="matrix(1,0,0,1,814.3333333333334,165.0000000000001) translate(20 80.4)"/><path d="M655 172c0-2.76 2.24-5 5-5h159c2.76 0 5 2.24 5 5v108c0 2.76-2.24 5-5 5H660c-2.76 0-5-2.24-5-5z" fill="none"/><use xlink:href="#r" transform="matrix(1,0,0,1,660,172) translate(1.75 36.5)"/><use xlink:href="#s" transform="matrix(1,0,0,1,660,172) translate(94.45 36.5)"/><use xlink:href="#t" transform="matrix(1,0,0,1,660,172) translate(16.39999999999999 58.1)"/><use xlink:href="#u" transform="matrix(1,0,0,1,660,172) translate(40.574999999999996 79.70000000000002)"/><path d="M950.67 412.33c0-2.76 2.24-5 5-5h40c2.76 0 5-2.24 5-5V400c0-2.76 1.58-3.42 3.53-1.46l17.6 17.6c1.95 1.94 1.95 5.1 0 7.06l-17.6 17.6c-1.95 1.95-3.53 1.3-3.53-1.47V437c0-2.76-2.24-5-5-5h-40c-2.76 0-5-2.24-5-5z" stroke="#00624f" stroke-width="3" fill="#fff"/><use xlink:href="#a" transform="matrix(6.123233995736766e-17,-1,1,6.123233995736766e-17,955.6666666666667,439.33333333333314) translate(20 37.9)"/><path d="M886.75 450.5c0-2.76 2.24-5 5-5h192.5c2.76 0 5 2.24 5 5v73c0 2.76-2.24 5-5 5h-192.5c-2.76 0-5-2.24-5-5z" fill="none"/><use xlink:href="#v" transform="matrix(1,0,0,1,891.75,450.5) translate(55.99074074074075 30.27777777777778)"/><use xlink:href="#w" transform="matrix(1,0,0,1,891.75,450.5) translate(114.58333333333334 30.27777777777778)"/><use xlink:href="#x" transform="matrix(1,0,0,1,891.75,450.5) translate(22.50308641975309 48.94444444444444)"/><use xlink:href="#y" transform="matrix(1,0,0,1,891.75,450.5) translate(76.47222222222223 48.94444444444444)"/><use xlink:href="#z" transform="matrix(1,0,0,1,891.75,450.5) translate(148.070987654321 48.94444444444444)"/><path d="M807.5 32h53.6l13.4 13.4V112h-67z" stroke="#af591f" stroke-width="2" fill="#ce6925"/><path d="M861.1 32l13.4 13.4h-13.4z" fill="#af591f"/><use xlink:href="#A" transform="matrix(1,0,0,1,812.5,37) translate(28.5 40.4)"/><path d="M558 720c0 16.57-13.43 30-30 30s-30-13.43-30-30 13.43-30 30-30 30 13.43 30 30z" stroke="#666" stroke-width="2" fill="#666"/><use xlink:href="#a" transform="matrix(1,0,0,1,503,695) translate(25 30.4)"/><path d="M715 760c0 16.57-13.43 30-30 30s-30-13.43-30-30 13.43-30 30-30 30 13.43 30 30z" stroke="#999" stroke-width="2" fill="#999"/><use xlink:href="#a" transform="matrix(1,0,0,1,660,735) translate(25 30.4)"/><path d="M466 810c0 16.57-13.43 30-30 30s-30-13.43-30-30 13.43-30 30-30 30 13.43 30 30z" stroke="#999" stroke-width="2" fill="#999"/><use xlink:href="#a" transform="matrix(1,0,0,1,411,785) translate(25 30.4)"/><path d="M498 630c0 16.57-13.43 30-30 30s-30-13.43-30-30 13.43-30 30-30 30 13.43 30 30z" stroke="#999" stroke-width="2" fill="#999"/><use xlink:href="#a" transform="matrix(1,0,0,1,443,605) translate(25 30.4)"/><path d="M239.33 528.12c1.6-2.25 4.72-2.78 6.97-1.18l232.62 165.03c1.64 1.16 3.92.77 5.1-.87 1.16-1.64 2.37-1.37 2.7.62l2.02 11.83c.47 2.72-1.37 5.3-4.1 5.77l-11.82 2c-1.98.35-2.65-.7-1.48-2.36 1.16-1.64.78-3.92-.87-5.1l-232.62-165c-2.25-1.6-2.78-4.73-1.18-6.98z" stroke="#666" stroke-width="2" fill="#666"/><use xlink:href="#a" transform="matrix(0.8156014133990587,0.5786141498973715,-0.5786141498973715,0.8156014133990587,247.63295077575427,525.0629477892728) translate(149.5 15.4)"/><path d="M529.97 529c2.76 0 5 2.24 5 5v113.84c0 1.92 1.56 3.48 3.48 3.48s2.38 1.1 1.02 2.46l-7.93 7.94c-1.96 1.95-5.12 1.95-7.08 0l-7.93-7.94c-1.36-1.36-.9-2.46 1.02-2.46s3.48-1.56 3.48-3.48V534c0-2.76 2.24-5 5-5z" stroke="#666" stroke-width="2" fill="#666"/><g><use xlink:href="#a" transform="matrix(6.123233995736766e-17,1,-1,6.123233995736766e-17,536.9337617185435,534) translate(63.5 14.4)"/></g><g><path d="M758.72 524.28c1.96 1.95 1.96 5.1 0 7.07L589.65 700.42c-.98.98-.98 2.56 0 3.54.98.97.65 1.76-.73 1.76h-6.64c-2.77 0-5-2.23-5-5v-6.64c0-1.38.8-1.7 1.76-.73.98.98 2.56.98 3.54 0l169.07-169.07c1.96-1.96 5.12-1.96 7.07 0z" stroke="#7ab648" stroke-width="2" fill="#7ab648"/></g><g><use xlink:href="#B" transform="matrix(-0.7071067811865481,0.707106781186547,-0.707106781186547,-0.7071067811865481,758.7240126401687,531.3470551716971) translate(123.5 14.4)"/></g><path d="M728 534c0-2.76 2.24-5 5-5h192.5c2.76 0 5 2.24 5 5v73c0 2.76-2.24 5-5 5H733c-2.76 0-5-2.24-5-5z" fill="none"/><g><use xlink:href="#C" transform="matrix(1,0,0,1,733,534) translate(1.2870370370370523 39.61111111111111)"/><use xlink:href="#D" transform="matrix(1,0,0,1,733,534) translate(58.15123456790124 39.61111111111111)"/><use xlink:href="#i" transform="matrix(1,0,0,1,733,534) translate(118.51543209876543 39.61111111111111)"/><use xlink:href="#E" transform="matrix(1,0,0,1,733,534) translate(137.44135802469134 39.61111111111111)"/></g><path d="M751 117c0-2.76 2.24-5 5-5h170c2.76 0 5 2.24 5 5v50c0 2.76-2.24 5-5 5H756c-2.76 0-5-2.24-5-5z" fill="none"/><g><use xlink:href="#F" transform="matrix(1,0,0,1,756,117) translate(1.3888888888889 28.11111111111111)"/></g><path d="M334 184c0-2.76 2.24-5 5-5h170c2.76 0 5 2.24 5 5v86.4c0 2.76-2.24 5-5 5H339c-2.76 0-5-2.24-5-5z" fill="none"/><g><use xlink:href="#G" transform="matrix(1,0,0,1,339,184) translate(34.64999999999999 25.5)"/><use xlink:href="#H" transform="matrix(1,0,0,1,339,184) translate(103.45 25.5)"/><use xlink:href="#I" transform="matrix(1,0,0,1,339,184) translate(13.125 47.1)"/><use xlink:href="#J" transform="matrix(1,0,0,1,339,184) translate(84.025 47.1)"/><use xlink:href="#K" transform="matrix(1,0,0,1,339,184) translate(14.699999999999989 68.7)"/><use xlink:href="#L" transform="matrix(1,0,0,1,339,184) translate(69.54999999999998 68.7)"/><use xlink:href="#M" transform="matrix(1,0,0,1,339,184) translate(137.35 68.7)"/></g><path d="M494.5 32h53.6l13.4 13.4V112h-67z" stroke="#9e2556" stroke-width="2" fill="#ba2b65"/><path d="M548.1 32l13.4 13.4h-13.4z" fill="#9e2556"/><g><use xlink:href="#A" transform="matrix(1,0,0,1,499.5,37) translate(28.5 40.4)"/></g><path d="M438 117c0-2.76 2.24-5 5-5h170c2.76 0 5 2.24 5 5v50c0 2.76-2.24 5-5 5H443c-2.76 0-5-2.24-5-5z" fill="none"/><g><use xlink:href="#N" transform="matrix(1,0,0,1,443,117) translate(-15.873456790123456 28.11111111111111)"/></g><path d="M272.67 481c0-2.76 2.24-5 5-5H393c2.76 0 5 2.24 5 5v60.87c0 2.76-2.24 5-5 5H277.67c-2.76 0-5-2.24-5-5z" fill="none"/><g><use xlink:href="#O" transform="matrix(1,0,0,1,277.66666666666646,481) translate(1.6499999999999915 34.1)"/><use xlink:href="#P" transform="matrix(1,0,0,1,277.66666666666646,481) translate(38.55 34.1)"/><use xlink:href="#Q" transform="matrix(1,0,0,1,277.66666666666646,481) translate(71.5 34.1)"/></g><defs><path fill="#fff" d="M24-248c120-7 223 5 221 122C244-46 201 0 124 0H24v-248zM76-40c74 7 117-18 117-86 0-67-45-88-117-82v168" id="R"/><path fill="#fff" d="M25-224v-37h50v37H25zM25 0v-190h50V0H25" id="S"/><path fill="#fff" d="M137-138c1-29-70-34-71-4 15 46 118 7 119 86 1 83-164 76-172 9l43-7c4 19 20 25 44 25 33 8 57-30 24-41C81-84 22-81 20-136c-2-80 154-74 161-7" id="T"/><path fill="#fff" d="M190-63c-7 42-38 67-86 67-59 0-84-38-90-98-12-110 154-137 174-36l-49 2c-2-19-15-32-35-32-30 0-35 28-38 64-6 74 65 87 74 30" id="U"/><path fill="#fff" d="M110-194c64 0 96 36 96 99 0 64-35 99-97 99-61 0-95-36-95-99 0-62 34-99 96-99zm-1 164c35 0 45-28 45-65 0-40-10-65-43-65-34 0-45 26-45 65 0 36 10 65 43 65" id="V"/><path fill="#fff" d="M128 0H69L1-190h53L99-40l48-150h52" id="W"/><path fill="#fff" d="M185-48c-13 30-37 53-82 52C43 2 14-33 14-96s30-98 90-98c62 0 83 45 84 108H66c0 31 8 55 39 56 18 0 30-7 34-22zm-45-69c5-46-57-63-70-21-2 6-4 13-4 21h74" id="X"/><path fill="#fff" d="M135-150c-39-12-60 13-60 57V0H25l-1-190h47c2 13-1 29 3 40 6-28 27-53 61-41v41" id="Y"/><path fill="#fff" d="M123 10C108 53 80 86 19 72V37c35 8 53-11 59-39L3-190h52l48 148c12-52 28-100 44-148h51" id="Z"/><g id="b"><use transform="matrix(0.05555555555555555,0,0,0.05555555555555555,0,0)" xlink:href="#R"/><use transform="matrix(0.05555555555555555,0,0,0.05555555555555555,14.388888888888888,0)" xlink:href="#S"/><use transform="matrix(0.05555555555555555,0,0,0.05555555555555555,19.944444444444443,0)" xlink:href="#T"/><use transform="matrix(0.05555555555555555,0,0,0.05555555555555555,31.055555555555554,0)" xlink:href="#U"/><use transform="matrix(0.05555555555555555,0,0,0.05555555555555555,42.166666666666664,0)" xlink:href="#V"/><use transform="matrix(0.05555555555555555,0,0,0.05555555555555555,54.33333333333333,0)" xlink:href="#W"/><use transform="matrix(0.05555555555555555,0,0,0.05555555555555555,65.44444444444444,0)" xlink:href="#X"/><use transform="matrix(0.05555555555555555,0,0,0.05555555555555555,76.55555555555556,0)" xlink:href="#Y"/><use transform="matrix(0.05555555555555555,0,0,0.05555555555555555,84.33333333333333,0)" xlink:href="#Z"/></g><path fill="#fff" d="M169-182c-1-43-94-46-97-3 18 66 151 10 154 114 3 95-165 93-204 36-6-8-10-19-12-30l50-8c3 46 112 56 116 5-17-69-150-10-154-114-4-87 153-88 188-35 5 8 8 18 10 28" id="aa"/><g id="c"><use transform="matrix(0.05555555555555555,0,0,0.05555555555555555,0,0)" xlink:href="#aa"/><use transform="matrix(0.05555555555555555,0,0,0.05555555555555555,13.333333333333332,0)" xlink:href="#X"/><use transform="matrix(0.05555555555555555,0,0,0.05555555555555555,24.444444444444443,0)" xlink:href="#Y"/><use transform="matrix(0.05555555555555555,0,0,0.05555555555555555,32.22222222222222,0)" xlink:href="#W"/><use transform="matrix(0.05555555555555555,0,0,0.05555555555555555,43.33333333333333,0)" xlink:href="#S"/><use transform="matrix(0.05555555555555555,0,0,0.05555555555555555,48.888888888888886,0)" xlink:href="#U"/><use transform="matrix(0.05555555555555555,0,0,0.05555555555555555,60,0)" xlink:href="#X"/></g><path fill="#fff" d="M24-248c93 1 206-16 204 79-1 75-69 88-152 82V0H24v-248zm52 121c47 0 100 7 100-41 0-47-54-39-100-39v80" id="ab"/><path fill="#fff" d="M144 0l-44-69L55 0H2l70-98-66-92h53l41 62 40-62h54l-67 91 71 99h-54" id="ac"/><g id="d"><use transform="matrix(0.05555555555555555,0,0,0.05555555555555555,0,0)" xlink:href="#ab"/><use transform="matrix(0.05555555555555555,0,0,0.05555555555555555,13.333333333333332,0)" xlink:href="#Y"/><use transform="matrix(0.05555555555555555,0,0,0.05555555555555555,21.11111111111111,0)" xlink:href="#V"/><use transform="matrix(0.05555555555555555,0,0,0.05555555555555555,33.27777777777778,0)" xlink:href="#ac"/><use transform="matrix(0.05555555555555555,0,0,0.05555555555555555,44.388888888888886,0)" xlink:href="#Z"/></g><path fill="#fff" d="M135-194c53 0 70 44 70 98 0 56-19 98-73 100-31 1-45-17-59-34 3 33 2 69 2 105H25l-1-265h48c2 10 0 23 3 31 11-24 29-35 60-35zM114-30c33 0 39-31 40-66 0-38-9-64-40-64-56 0-55 130 0 130" id="ad"/><path fill="#fff" d="M25 0v-261h50V0H25" id="ae"/><path fill="#fff" d="M220-157c-53 9-28 100-34 157h-49v-107c1-27-5-49-29-50C55-147 81-57 75 0H25l-1-190h47c2 12-1 28 3 38 10-53 101-56 108 0 13-22 24-43 59-42 82 1 51 116 57 194h-49v-107c-1-25-5-48-29-50" id="af"/><path fill="#fff" d="M135-194c87-1 58 113 63 194h-50c-7-57 23-157-34-157-59 0-34 97-39 157H25l-1-190h47c2 12-1 28 3 38 12-26 28-41 61-42" id="ag"/><path fill="#fff" d="M115-3C79 11 28 4 28-45v-112H4v-33h27l15-45h31v45h36v33H77v99c-1 23 16 31 38 25v30" id="ah"/><g id="e"><use transform="matrix(0.05555555555555555,0,0,0.05555555555555555,0,0)" xlink:href="#R"/><use transform="matrix(0.05555555555555555,0,0,0.05555555555555555,14.388888888888888,0)" xlink:href="#X"/><use transform="matrix(0.05555555555555555,0,0,0.05555555555555555,25.5,0)" xlink:href="#ad"/><use transform="matrix(0.05555555555555555,0,0,0.05555555555555555,37.666666666666664,0)" xlink:href="#ae"/><use transform="matrix(0.05555555555555555,0,0,0.05555555555555555,43.22222222222222,0)" xlink:href="#V"/><use transform="matrix(0.05555555555555555,0,0,0.05555555555555555,55.388888888888886,0)" xlink:href="#Z"/><use transform="matrix(0.05555555555555555,0,0,0.05555555555555555,66.5,0)" xlink:href="#af"/><use transform="matrix(0.05555555555555555,0,0,0.05555555555555555,84.27777777777777,0)" xlink:href="#X"/><use transform="matrix(0.05555555555555555,0,0,0.05555555555555555,95.38888888888889,0)" xlink:href="#ag"/><use transform="matrix(0.05555555555555555,0,0,0.05555555555555555,107.55555555555556,0)" xlink:href="#ah"/></g><path fill="#fff" d="M4 7l51-268h42L46 7H4" id="ai"/><path fill="#fff" d="M199 0l-22-63H83L61 0H9l90-248h61L250 0h-51zm-33-102l-36-108c-10 38-24 72-36 108h72" id="aj"/><path fill="#fff" d="M195-6C206 82 75 100 31 46c-4-6-6-13-8-21l49-6c3 16 16 24 34 25 40 0 42-37 40-79-11 22-30 35-61 35-53 0-70-43-70-97 0-56 18-96 73-97 30 0 46 14 59 34l2-30h47zm-90-29c32 0 41-27 41-63 0-35-9-62-40-62-32 0-39 29-40 63 0 36 9 62 39 62" id="ak"/><g id="f"><use transform="matrix(0.05555555555555555,0,0,0.05555555555555555,0,0)" xlink:href="#aa"/><use transform="matrix(0.05555555555555555,0,0,0.05555555555555555,13.333333333333332,0)" xlink:href="#X"/><use transform="matrix(0.05555555555555555,0,0,0.05555555555555555,24.444444444444443,0)" xlink:href="#Y"/><use transform="matrix(0.05555555555555555,0,0,0.05555555555555555,32.22222222222222,0)" xlink:href="#W"/><use transform="matrix(0.05555555555555555,0,0,0.05555555555555555,43.33333333333333,0)" xlink:href="#S"/><use transform="matrix(0.05555555555555555,0,0,0.05555555555555555,48.888888888888886,0)" xlink:href="#U"/><use transform="matrix(0.05555555555555555,0,0,0.05555555555555555,60,0)" xlink:href="#X"/><use transform="matrix(0.05555555555555555,0,0,0.05555555555555555,71.11111111111111,0)" xlink:href="#ai"/><use transform="matrix(0.05555555555555555,0,0,0.05555555555555555,76.66666666666667,0)" xlink:href="#aj"/><use transform="matrix(0.05555555555555555,0,0,0.05555555555555555,91.05555555555556,0)" xlink:href="#ak"/><use transform="matrix(0.05555555555555555,0,0,0.05555555555555555,103.22222222222223,0)" xlink:href="#X"/><use transform="matrix(0.05555555555555555,0,0,0.05555555555555555,114.33333333333336,0)" xlink:href="#ag"/><use transform="matrix(0.05555555555555555,0,0,0.05555555555555555,126.50000000000001,0)" xlink:href="#ah"/></g><path fill="#7ab648" d="M230 0l2-204L168 0h-37L68-204 70 0H24v-248h70l56 185 57-185h69V0h-46" id="al"/><path fill="#7ab648" d="M110-194c64 0 96 36 96 99 0 64-35 99-97 99-61 0-95-36-95-99 0-62 34-99 96-99zm-1 164c35 0 45-28 45-65 0-40-10-65-43-65-34 0-45 26-45 65 0 36 10 65 43 65" id="am"/><path fill="#7ab648" d="M88-194c31-1 46 15 58 34l-1-101h50l1 261h-48c-2-10 0-23-3-31C134-8 116 4 84 4 32 4 16-41 15-95c0-56 19-97 73-99zm17 164c33 0 40-30 41-66 1-37-9-64-41-64s-38 30-39 65c0 43 13 65 39 65" id="an"/><path fill="#7ab648" d="M85 4C-2 5 27-109 22-190h50c7 57-23 150 33 157 60-5 35-97 40-157h50l1 190h-47c-2-12 1-28-3-38-12 25-28 42-61 42" id="ao"/><path fill="#7ab648" d="M25 0v-261h50V0H25" id="ap"/><path fill="#7ab648" d="M185-48c-13 30-37 53-82 52C43 2 14-33 14-96s30-98 90-98c62 0 83 45 84 108H66c0 31 8 55 39 56 18 0 30-7 34-22zm-45-69c5-46-57-63-70-21-2 6-4 13-4 21h74" id="aq"/><g id="g"><use transform="matrix(0.043209876543209874,0,0,0.043209876543209874,0,0)" xlink:href="#al"/><use transform="matrix(0.043209876543209874,0,0,0.043209876543209874,12.919753086419753,0)" xlink:href="#am"/><use transform="matrix(0.043209876543209874,0,0,0.043209876543209874,22.382716049382715,0)" xlink:href="#an"/><use transform="matrix(0.043209876543209874,0,0,0.043209876543209874,31.845679012345677,0)" xlink:href="#ao"/><use transform="matrix(0.043209876543209874,0,0,0.043209876543209874,41.30864197530864,0)" xlink:href="#ap"/><use transform="matrix(0.043209876543209874,0,0,0.043209876543209874,45.629629629629626,0)" xlink:href="#aq"/></g><path fill="#7ab648" d="M24 0v-248h52V0H24" id="ar"/><path fill="#7ab648" d="M24-248c120-7 223 5 221 122C244-46 201 0 124 0H24v-248zM76-40c74 7 117-18 117-86 0-67-45-88-117-82v168" id="as"/><g id="h"><use transform="matrix(0.043209876543209874,0,0,0.043209876543209874,0,0)" xlink:href="#ar"/><use transform="matrix(0.043209876543209874,0,0,0.043209876543209874,4.320987654320987,0)" xlink:href="#as"/></g><path fill="#7ab648" d="M115-3C79 11 28 4 28-45v-112H4v-33h27l15-45h31v45h36v33H77v99c-1 23 16 31 38 25v30" id="at"/><g id="i"><use transform="matrix(0.043209876543209874,0,0,0.043209876543209874,0,0)" xlink:href="#at"/><use transform="matrix(0.043209876543209874,0,0,0.043209876543209874,5.141975308641975,0)" xlink:href="#am"/></g><path fill="#7ab648" d="M133-34C117-15 103 5 69 4 32 3 11-16 11-54c-1-60 55-63 116-61 1-26-3-47-28-47-18 1-26 9-28 27l-52-2c7-38 36-58 82-57s74 22 75 68l1 82c-1 14 12 18 25 15v27c-30 8-71 5-69-32zm-48 3c29 0 43-24 42-57-32 0-66-3-65 30 0 17 8 27 23 27" id="au"/><path fill="#7ab648" d="M135-150c-39-12-60 13-60 57V0H25l-1-190h47c2 13-1 29 3 40 6-28 27-53 61-41v41" id="av"/><path fill="#7ab648" d="M137-138c1-29-70-34-71-4 15 46 118 7 119 86 1 83-164 76-172 9l43-7c4 19 20 25 44 25 33 8 57-30 24-41C81-84 22-81 20-136c-2-80 154-74 161-7" id="aw"/><g id="j"><use transform="matrix(0.043209876543209874,0,0,0.043209876543209874,0,0)" xlink:href="#au"/><use transform="matrix(0.043209876543209874,0,0,0.043209876543209874,8.641975308641975,0)" xlink:href="#an"/><use transform="matrix(0.043209876543209874,0,0,0.043209876543209874,18.104938271604937,0)" xlink:href="#an"/><use transform="matrix(0.043209876543209874,0,0,0.043209876543209874,27.5679012345679,0)" xlink:href="#av"/><use transform="matrix(0.043209876543209874,0,0,0.043209876543209874,33.61728395061728,0)" xlink:href="#aq"/><use transform="matrix(0.043209876543209874,0,0,0.043209876543209874,42.25925925925925,0)" xlink:href="#aw"/><use transform="matrix(0.043209876543209874,0,0,0.043209876543209874,50.901234567901234,0)" xlink:href="#aw"/></g><path fill="#7ab648" d="M25-224v-37h50v37H25zM25 0v-190h50V0H25" id="ax"/><path fill="#7ab648" d="M135-194c87-1 58 113 63 194h-50c-7-57 23-157-34-157-59 0-34 97-39 157H25l-1-190h47c2 12-1 28 3 38 12-26 28-41 61-42" id="ay"/><g id="k"><use transform="matrix(0.043209876543209874,0,0,0.043209876543209874,0,0)" xlink:href="#av"/><use transform="matrix(0.043209876543209874,0,0,0.043209876543209874,6.049382716049382,0)" xlink:href="#aq"/><use transform="matrix(0.043209876543209874,0,0,0.043209876543209874,14.691358024691358,0)" xlink:href="#aw"/><use transform="matrix(0.043209876543209874,0,0,0.043209876543209874,23.333333333333332,0)" xlink:href="#am"/><use transform="matrix(0.043209876543209874,0,0,0.043209876543209874,32.79629629629629,0)" xlink:href="#ap"/><use transform="matrix(0.043209876543209874,0,0,0.043209876543209874,37.11728395061728,0)" xlink:href="#ao"/><use transform="matrix(0.043209876543209874,0,0,0.043209876543209874,46.58024691358025,0)" xlink:href="#at"/><use transform="matrix(0.043209876543209874,0,0,0.043209876543209874,51.72222222222221,0)" xlink:href="#ax"/><use transform="matrix(0.043209876543209874,0,0,0.043209876543209874,56.043209876543195,0)" xlink:href="#am"/><use transform="matrix(0.043209876543209874,0,0,0.043209876543209874,65.50617283950616,0)" xlink:href="#ay"/></g><path fill="#7ab648" d="M238-95c0 69-44 99-111 99C63 4 22-25 22-93v-155h51v151c-1 38 19 59 55 60 90 1 49-130 58-211h52v153" id="az"/><g id="l"><use transform="matrix(0.05,0,0,0.05,0,0)" xlink:href="#az"/><use transform="matrix(0.05,0,0,0.05,12.950000000000001,0)" xlink:href="#aw"/><use transform="matrix(0.05,0,0,0.05,22.950000000000003,0)" xlink:href="#aq"/><use transform="matrix(0.05,0,0,0.05,32.95,0)" xlink:href="#av"/></g><g id="m"><use transform="matrix(0.05,0,0,0.05,0,0)" xlink:href="#am"/><use transform="matrix(0.05,0,0,0.05,10.950000000000001,0)" xlink:href="#av"/></g><path fill="#7ab648" d="M190-63c-7 42-38 67-86 67-59 0-84-38-90-98-12-110 154-137 174-36l-49 2c-2-19-15-32-35-32-30 0-35 28-38 64-6 74 65 87 74 30" id="aA"/><path fill="#7ab648" d="M14-72v-43h91v43H14" id="aB"/><g id="n"><use transform="matrix(0.05,0,0,0.05,0,0)" xlink:href="#aA"/><use transform="matrix(0.05,0,0,0.05,10,0)" xlink:href="#av"/><use transform="matrix(0.05,0,0,0.05,17,0)" xlink:href="#am"/><use transform="matrix(0.05,0,0,0.05,27.950000000000003,0)" xlink:href="#aw"/><use transform="matrix(0.05,0,0,0.05,37.95,0)" xlink:href="#aw"/><use transform="matrix(0.05,0,0,0.05,47.95,0)" xlink:href="#aB"/><use transform="matrix(0.05,0,0,0.05,53.900000000000006,0)" xlink:href="#al"/><use transform="matrix(0.05,0,0,0.05,68.85000000000001,0)" xlink:href="#am"/><use transform="matrix(0.05,0,0,0.05,79.80000000000001,0)" xlink:href="#an"/><use transform="matrix(0.05,0,0,0.05,90.75000000000001,0)" xlink:href="#ao"/><use transform="matrix(0.05,0,0,0.05,101.70000000000002,0)" xlink:href="#ap"/><use transform="matrix(0.05,0,0,0.05,106.7,0)" xlink:href="#aq"/></g><path fill="#7ab648" d="M84 4C32 4 15-41 15-95c0-55 18-99 73-99 29 0 47 12 58 34l2-30h48l-1 265h-49V-32C136-9 114 4 84 4zm21-34c32 0 41-29 41-66 0-36-9-64-40-64-33 0-39 30-40 65 0 43 13 65 39 65" id="aC"/><g id="o"><use transform="matrix(0.05,0,0,0.05,0,0)" xlink:href="#av"/><use transform="matrix(0.05,0,0,0.05,7,0)" xlink:href="#aq"/><use transform="matrix(0.05,0,0,0.05,17,0)" xlink:href="#aC"/><use transform="matrix(0.05,0,0,0.05,27.950000000000003,0)" xlink:href="#ao"/><use transform="matrix(0.05,0,0,0.05,38.900000000000006,0)" xlink:href="#aq"/><use transform="matrix(0.05,0,0,0.05,48.900000000000006,0)" xlink:href="#aw"/><use transform="matrix(0.05,0,0,0.05,58.900000000000006,0)" xlink:href="#at"/></g><path fill="#fff" d="M133-34C117-15 103 5 69 4 32 3 11-16 11-54c-1-60 55-63 116-61 1-26-3-47-28-47-18 1-26 9-28 27l-52-2c7-38 36-58 82-57s74 22 75 68l1 82c-1 14 12 18 25 15v27c-30 8-71 5-69-32zm-48 3c29 0 43-24 42-57-32 0-66-3-65 30 0 17 8 27 23 27" id="aD"/><path fill="#fff" d="M135-194c52 0 70 43 70 98 0 56-19 99-73 100-30 1-46-15-58-35L72 0H24l1-261h50v104c11-23 29-37 60-37zM114-30c31 0 40-27 40-66 0-37-7-63-39-63s-41 28-41 65c0 36 8 64 40 64" id="aE"/><g id="p"><use transform="matrix(0.05,0,0,0.05,0,0)" xlink:href="#R"/><use transform="matrix(0.05,0,0,0.05,12.950000000000001,0)" xlink:href="#aD"/><use transform="matrix(0.05,0,0,0.05,22.950000000000003,0)" xlink:href="#ah"/><use transform="matrix(0.05,0,0,0.05,28.900000000000002,0)" xlink:href="#aD"/><use transform="matrix(0.05,0,0,0.05,38.900000000000006,0)" xlink:href="#aE"/><use transform="matrix(0.05,0,0,0.05,49.85000000000001,0)" xlink:href="#aD"/><use transform="matrix(0.05,0,0,0.05,59.85,0)" xlink:href="#T"/><use transform="matrix(0.05,0,0,0.05,69.85000000000001,0)" xlink:href="#X"/></g><path fill="#ce6925" d="M199 0l-22-63H83L61 0H9l90-248h61L250 0h-51zm-33-102l-36-108c-10 38-24 72-36 108h72" id="aF"/><path fill="#ce6925" d="M135-194c87-1 58 113 63 194h-50c-7-57 23-157-34-157-59 0-34 97-39 157H25l-1-190h47c2 12-1 28 3 38 12-26 28-41 61-42" id="aG"/><path fill="#ce6925" d="M110-194c64 0 96 36 96 99 0 64-35 99-97 99-61 0-95-36-95-99 0-62 34-99 96-99zm-1 164c35 0 45-28 45-65 0-40-10-65-43-65-34 0-45 26-45 65 0 36 10 65 43 65" id="aH"/><path fill="#ce6925" d="M85 4C-2 5 27-109 22-190h50c7 57-23 150 33 157 60-5 35-97 40-157h50l1 190h-47c-2-12 1-28-3-38-12 25-28 42-61 42" id="aI"/><path fill="#ce6925" d="M190-63c-7 42-38 67-86 67-59 0-84-38-90-98-12-110 154-137 174-36l-49 2c-2-19-15-32-35-32-30 0-35 28-38 64-6 74 65 87 74 30" id="aJ"/><path fill="#ce6925" d="M185-48c-13 30-37 53-82 52C43 2 14-33 14-96s30-98 90-98c62 0 83 45 84 108H66c0 31 8 55 39 56 18 0 30-7 34-22zm-45-69c5-46-57-63-70-21-2 6-4 13-4 21h74" id="aK"/><g id="r"><use transform="matrix(0.05,0,0,0.05,0,0)" xlink:href="#aF"/><use transform="matrix(0.05,0,0,0.05,12.950000000000001,0)" xlink:href="#aG"/><use transform="matrix(0.05,0,0,0.05,23.900000000000002,0)" xlink:href="#aG"/><use transform="matrix(0.05,0,0,0.05,34.85,0)" xlink:href="#aH"/><use transform="matrix(0.05,0,0,0.05,45.800000000000004,0)" xlink:href="#aI"/><use transform="matrix(0.05,0,0,0.05,56.75,0)" xlink:href="#aG"/><use transform="matrix(0.05,0,0,0.05,67.7,0)" xlink:href="#aJ"/><use transform="matrix(0.05,0,0,0.05,77.7,0)" xlink:href="#aK"/></g><path fill="#ce6925" d="M230 0l2-204L168 0h-37L68-204 70 0H24v-248h70l56 185 57-185h69V0h-46" id="aL"/><path fill="#ce6925" d="M88-194c31-1 46 15 58 34l-1-101h50l1 261h-48c-2-10 0-23-3-31C134-8 116 4 84 4 32 4 16-41 15-95c0-56 19-97 73-99zm17 164c33 0 40-30 41-66 1-37-9-64-41-64s-38 30-39 65c0 43 13 65 39 65" id="aM"/><path fill="#ce6925" d="M25 0v-261h50V0H25" id="aN"/><g id="s"><use transform="matrix(0.05,0,0,0.05,0,0)" xlink:href="#aL"/><use transform="matrix(0.05,0,0,0.05,14.950000000000001,0)" xlink:href="#aH"/><use transform="matrix(0.05,0,0,0.05,25.900000000000002,0)" xlink:href="#aM"/><use transform="matrix(0.05,0,0,0.05,36.85,0)" xlink:href="#aI"/><use transform="matrix(0.05,0,0,0.05,47.800000000000004,0)" xlink:href="#aN"/><use transform="matrix(0.05,0,0,0.05,52.800000000000004,0)" xlink:href="#aK"/></g><path fill="#ce6925" d="M14-72v-43h91v43H14" id="aO"/><path fill="#ce6925" d="M136-208V0H84v-208H4v-40h212v40h-80" id="aP"/><path fill="#ce6925" d="M133-34C117-15 103 5 69 4 32 3 11-16 11-54c-1-60 55-63 116-61 1-26-3-47-28-47-18 1-26 9-28 27l-52-2c7-38 36-58 82-57s74 22 75 68l1 82c-1 14 12 18 25 15v27c-30 8-71 5-69-32zm-48 3c29 0 43-24 42-57-32 0-66-3-65 30 0 17 8 27 23 27" id="aQ"/><path fill="#ce6925" d="M115-3C79 11 28 4 28-45v-112H4v-33h27l15-45h31v45h36v33H77v99c-1 23 16 31 38 25v30" id="aR"/><g id="t"><use transform="matrix(0.05,0,0,0.05,0,0)" xlink:href="#aL"/><use transform="matrix(0.05,0,0,0.05,14.950000000000001,0)" xlink:href="#aH"/><use transform="matrix(0.05,0,0,0.05,25.900000000000002,0)" xlink:href="#aM"/><use transform="matrix(0.05,0,0,0.05,36.85,0)" xlink:href="#aI"/><use transform="matrix(0.05,0,0,0.05,47.800000000000004,0)" xlink:href="#aN"/><use transform="matrix(0.05,0,0,0.05,52.800000000000004,0)" xlink:href="#aK"/><use transform="matrix(0.05,0,0,0.05,62.800000000000004,0)" xlink:href="#aO"/><use transform="matrix(0.05,0,0,0.05,68.75,0)" xlink:href="#aP"/><use transform="matrix(0.05,0,0,0.05,78.35000000000001,0)" xlink:href="#aK"/><use transform="matrix(0.05,0,0,0.05,88.35000000000001,0)" xlink:href="#aG"/><use transform="matrix(0.05,0,0,0.05,99.30000000000001,0)" xlink:href="#aQ"/><use transform="matrix(0.05,0,0,0.05,109.30000000000001,0)" xlink:href="#aG"/><use transform="matrix(0.05,0,0,0.05,120.25,0)" xlink:href="#aR"/></g><path fill="#ce6925" d="M137-138c1-29-70-34-71-4 15 46 118 7 119 86 1 83-164 76-172 9l43-7c4 19 20 25 44 25 33 8 57-30 24-41C81-84 22-81 20-136c-2-80 154-74 161-7" id="aS"/><path fill="#ce6925" d="M25-224v-37h50v37H25zM25 0v-190h50V0H25" id="aT"/><g id="u"><use transform="matrix(0.05,0,0,0.05,0,0)" xlink:href="#aS"/><use transform="matrix(0.05,0,0,0.05,10,0)" xlink:href="#aK"/><use transform="matrix(0.05,0,0,0.05,20,0)" xlink:href="#aN"/><use transform="matrix(0.05,0,0,0.05,25,0)" xlink:href="#aK"/><use transform="matrix(0.05,0,0,0.05,35,0)" xlink:href="#aJ"/><use transform="matrix(0.05,0,0,0.05,45,0)" xlink:href="#aR"/><use transform="matrix(0.05,0,0,0.05,50.95,0)" xlink:href="#aT"/><use transform="matrix(0.05,0,0,0.05,55.95,0)" xlink:href="#aH"/><use transform="matrix(0.05,0,0,0.05,66.9,0)" xlink:href="#aG"/></g><path fill="#00624f" d="M230 0l2-204L168 0h-37L68-204 70 0H24v-248h70l56 185 57-185h69V0h-46" id="aU"/><path fill="#00624f" d="M110-194c64 0 96 36 96 99 0 64-35 99-97 99-61 0-95-36-95-99 0-62 34-99 96-99zm-1 164c35 0 45-28 45-65 0-40-10-65-43-65-34 0-45 26-45 65 0 36 10 65 43 65" id="aV"/><path fill="#00624f" d="M88-194c31-1 46 15 58 34l-1-101h50l1 261h-48c-2-10 0-23-3-31C134-8 116 4 84 4 32 4 16-41 15-95c0-56 19-97 73-99zm17 164c33 0 40-30 41-66 1-37-9-64-41-64s-38 30-39 65c0 43 13 65 39 65" id="aW"/><path fill="#00624f" d="M85 4C-2 5 27-109 22-190h50c7 57-23 150 33 157 60-5 35-97 40-157h50l1 190h-47c-2-12 1-28-3-38-12 25-28 42-61 42" id="aX"/><path fill="#00624f" d="M25 0v-261h50V0H25" id="aY"/><path fill="#00624f" d="M185-48c-13 30-37 53-82 52C43 2 14-33 14-96s30-98 90-98c62 0 83 45 84 108H66c0 31 8 55 39 56 18 0 30-7 34-22zm-45-69c5-46-57-63-70-21-2 6-4 13-4 21h74" id="aZ"/><g id="v"><use transform="matrix(0.043209876543209874,0,0,0.043209876543209874,0,0)" xlink:href="#aU"/><use transform="matrix(0.043209876543209874,0,0,0.043209876543209874,12.919753086419753,0)" xlink:href="#aV"/><use transform="matrix(0.043209876543209874,0,0,0.043209876543209874,22.382716049382715,0)" xlink:href="#aW"/><use transform="matrix(0.043209876543209874,0,0,0.043209876543209874,31.845679012345677,0)" xlink:href="#aX"/><use transform="matrix(0.043209876543209874,0,0,0.043209876543209874,41.30864197530864,0)" xlink:href="#aY"/><use transform="matrix(0.043209876543209874,0,0,0.043209876543209874,45.629629629629626,0)" xlink:href="#aZ"/></g><path fill="#00624f" d="M25-224v-37h50v37H25zM25 0v-190h50V0H25" id="ba"/><path fill="#00624f" d="M137-138c1-29-70-34-71-4 15 46 118 7 119 86 1 83-164 76-172 9l43-7c4 19 20 25 44 25 33 8 57-30 24-41C81-84 22-81 20-136c-2-80 154-74 161-7" id="bb"/><path fill="#00624f" d="M115-3C79 11 28 4 28-45v-112H4v-33h27l15-45h31v45h36v33H77v99c-1 23 16 31 38 25v30" id="bc"/><g id="w"><use transform="matrix(0.043209876543209874,0,0,0.043209876543209874,0,0)" xlink:href="#aY"/><use transform="matrix(0.043209876543209874,0,0,0.043209876543209874,4.320987654320987,0)" xlink:href="#ba"/><use transform="matrix(0.043209876543209874,0,0,0.043209876543209874,8.641975308641975,0)" xlink:href="#bb"/><use transform="matrix(0.043209876543209874,0,0,0.043209876543209874,17.28395061728395,0)" xlink:href="#bc"/></g><path fill="#00624f" d="M136-208V0H84v-208H4v-40h212v40h-80" id="bd"/><path fill="#00624f" d="M135-194c87-1 58 113 63 194h-50c-7-57 23-157-34-157-59 0-34 97-39 157H25l-1-190h47c2 12-1 28 3 38 12-26 28-41 61-42" id="be"/><path fill="#00624f" d="M133-34C117-15 103 5 69 4 32 3 11-16 11-54c-1-60 55-63 116-61 1-26-3-47-28-47-18 1-26 9-28 27l-52-2c7-38 36-58 82-57s74 22 75 68l1 82c-1 14 12 18 25 15v27c-30 8-71 5-69-32zm-48 3c29 0 43-24 42-57-32 0-66-3-65 30 0 17 8 27 23 27" id="bf"/><g id="x"><use transform="matrix(0.043209876543209874,0,0,0.043209876543209874,0,0)" xlink:href="#bd"/><use transform="matrix(0.043209876543209874,0,0,0.043209876543209874,8.296296296296296,0)" xlink:href="#aZ"/><use transform="matrix(0.043209876543209874,0,0,0.043209876543209874,16.938271604938272,0)" xlink:href="#be"/><use transform="matrix(0.043209876543209874,0,0,0.043209876543209874,26.401234567901234,0)" xlink:href="#bf"/><use transform="matrix(0.043209876543209874,0,0,0.043209876543209874,35.04320987654321,0)" xlink:href="#be"/><use transform="matrix(0.043209876543209874,0,0,0.043209876543209874,44.50617283950617,0)" xlink:href="#bc"/></g><path fill="#00624f" d="M190-63c-7 42-38 67-86 67-59 0-84-38-90-98-12-110 154-137 174-36l-49 2c-2-19-15-32-35-32-30 0-35 28-38 64-6 74 65 87 74 30" id="bg"/><g id="y"><use transform="matrix(0.043209876543209874,0,0,0.043209876543209874,0,0)" xlink:href="#bb"/><use transform="matrix(0.043209876543209874,0,0,0.043209876543209874,8.641975308641975,0)" xlink:href="#aZ"/><use transform="matrix(0.043209876543209874,0,0,0.043209876543209874,17.28395061728395,0)" xlink:href="#aY"/><use transform="matrix(0.043209876543209874,0,0,0.043209876543209874,21.604938271604937,0)" xlink:href="#aZ"/><use transform="matrix(0.043209876543209874,0,0,0.043209876543209874,30.24691358024691,0)" xlink:href="#bg"/><use transform="matrix(0.043209876543209874,0,0,0.043209876543209874,38.888888888888886,0)" xlink:href="#bc"/><use transform="matrix(0.043209876543209874,0,0,0.043209876543209874,44.03086419753086,0)" xlink:href="#ba"/><use transform="matrix(0.043209876543209874,0,0,0.043209876543209874,48.35185185185185,0)" xlink:href="#aV"/><use transform="matrix(0.043209876543209874,0,0,0.043209876543209874,57.81481481481481,0)" xlink:href="#be"/></g><g id="z"><use transform="matrix(0.043209876543209874,0,0,0.043209876543209874,0,0)" xlink:href="#aY"/><use transform="matrix(0.043209876543209874,0,0,0.043209876543209874,4.320987654320987,0)" xlink:href="#ba"/><use transform="matrix(0.043209876543209874,0,0,0.043209876543209874,8.641975308641975,0)" xlink:href="#bb"/><use transform="matrix(0.043209876543209874,0,0,0.043209876543209874,17.28395061728395,0)" xlink:href="#bc"/></g><path fill="#7ab648" d="M240-174c0 40-23 61-54 70L253 0h-59l-57-94H76V0H24v-248c93 4 217-23 216 74zM76-134c48-2 112 12 112-38 0-48-66-32-112-35v73" id="bh"/><g id="C"><use transform="matrix(0.043209876543209874,0,0,0.043209876543209874,0,0)" xlink:href="#bh"/><use transform="matrix(0.043209876543209874,0,0,0.043209876543209874,11.191358024691358,0)" xlink:href="#aq"/><use transform="matrix(0.043209876543209874,0,0,0.043209876543209874,19.833333333333332,0)" xlink:href="#aC"/><use transform="matrix(0.043209876543209874,0,0,0.043209876543209874,29.296296296296294,0)" xlink:href="#ao"/><use transform="matrix(0.043209876543209874,0,0,0.043209876543209874,38.75925925925925,0)" xlink:href="#aw"/><use transform="matrix(0.043209876543209874,0,0,0.043209876543209874,47.40123456790122,0)" xlink:href="#at"/></g><path fill="#7ab648" d="M135-194c53 0 70 44 70 98 0 56-19 98-73 100-31 1-45-17-59-34 3 33 2 69 2 105H25l-1-265h48c2 10 0 23 3 31 11-24 29-35 60-35zM114-30c33 0 39-31 40-66 0-38-9-64-40-64-56 0-55 130 0 130" id="bi"/><path fill="#7ab648" d="M144 0l-44-69L55 0H2l70-98-66-92h53l41 62 40-62h54l-67 91 71 99h-54" id="bj"/><g id="D"><use transform="matrix(0.043209876543209874,0,0,0.043209876543209874,0,0)" xlink:href="#bi"/><use transform="matrix(0.043209876543209874,0,0,0.043209876543209874,9.462962962962962,0)" xlink:href="#av"/><use transform="matrix(0.043209876543209874,0,0,0.043209876543209874,15.512345679012345,0)" xlink:href="#am"/><use transform="matrix(0.043209876543209874,0,0,0.043209876543209874,24.975308641975307,0)" xlink:href="#bj"/><use transform="matrix(0.043209876543209874,0,0,0.043209876543209874,33.61728395061728,0)" xlink:href="#ax"/><use transform="matrix(0.043209876543209874,0,0,0.043209876543209874,37.938271604938265,0)" xlink:href="#aq"/><use transform="matrix(0.043209876543209874,0,0,0.043209876543209874,46.58024691358025,0)" xlink:href="#an"/></g><g id="E"><use transform="matrix(0.043209876543209874,0,0,0.043209876543209874,0,0)" xlink:href="#al"/><use transform="matrix(0.043209876543209874,0,0,0.043209876543209874,12.919753086419753,0)" xlink:href="#am"/><use transform="matrix(0.043209876543209874,0,0,0.043209876543209874,22.382716049382715,0)" xlink:href="#an"/><use transform="matrix(0.043209876543209874,0,0,0.043209876543209874,31.845679012345677,0)" xlink:href="#ao"/><use transform="matrix(0.043209876543209874,0,0,0.043209876543209874,41.30864197530864,0)" xlink:href="#ap"/><use transform="matrix(0.043209876543209874,0,0,0.043209876543209874,45.629629629629626,0)" xlink:href="#aq"/></g><path fill="#ce6925" d="M24-248c120-7 223 5 221 122C244-46 201 0 124 0H24v-248zM76-40c74 7 117-18 117-86 0-67-45-88-117-82v168" id="bk"/><path fill="#ce6925" d="M135-150c-39-12-60 13-60 57V0H25l-1-190h47c2 13-1 29 3 40 6-28 27-53 61-41v41" id="bl"/><path fill="#ce6925" d="M135-194c53 0 70 44 70 98 0 56-19 98-73 100-31 1-45-17-59-34 3 33 2 69 2 105H25l-1-265h48c2 10 0 23 3 31 11-24 29-35 60-35zM114-30c33 0 39-31 40-66 0-38-9-64-40-64-56 0-55 130 0 130" id="bm"/><path fill="#ce6925" d="M24 0v-54h51V0H24" id="bn"/><path fill="#ce6925" d="M25-224v-37h50v37H25zM75 22c2 45-34 59-81 51V38c22 5 31-5 31-27v-201h50V22" id="bo"/><g id="F"><use transform="matrix(0.043209876543209874,0,0,0.043209876543209874,0,0)" xlink:href="#aL"/><use transform="matrix(0.043209876543209874,0,0,0.043209876543209874,12.919753086419753,0)" xlink:href="#aH"/><use transform="matrix(0.043209876543209874,0,0,0.043209876543209874,22.382716049382715,0)" xlink:href="#aM"/><use transform="matrix(0.043209876543209874,0,0,0.043209876543209874,31.845679012345677,0)" xlink:href="#aI"/><use transform="matrix(0.043209876543209874,0,0,0.043209876543209874,41.30864197530864,0)" xlink:href="#aN"/><use transform="matrix(0.043209876543209874,0,0,0.043209876543209874,45.629629629629626,0)" xlink:href="#aK"/><use transform="matrix(0.043209876543209874,0,0,0.043209876543209874,54.2716049382716,0)" xlink:href="#bk"/><use transform="matrix(0.043209876543209874,0,0,0.043209876543209874,65.46296296296296,0)" xlink:href="#aK"/><use transform="matrix(0.043209876543209874,0,0,0.043209876543209874,74.10493827160494,0)" xlink:href="#aS"/><use transform="matrix(0.043209876543209874,0,0,0.043209876543209874,82.74691358024691,0)" xlink:href="#aJ"/><use transform="matrix(0.043209876543209874,0,0,0.043209876543209874,91.38888888888889,0)" xlink:href="#bl"/><use transform="matrix(0.043209876543209874,0,0,0.043209876543209874,97.43827160493827,0)" xlink:href="#aT"/><use transform="matrix(0.043209876543209874,0,0,0.043209876543209874,101.75925925925925,0)" xlink:href="#bm"/><use transform="matrix(0.043209876543209874,0,0,0.043209876543209874,111.22222222222221,0)" xlink:href="#aR"/><use transform="matrix(0.043209876543209874,0,0,0.043209876543209874,116.36419753086419,0)" xlink:href="#aH"/><use transform="matrix(0.043209876543209874,0,0,0.043209876543209874,125.82716049382715,0)" xlink:href="#bl"/><use transform="matrix(0.043209876543209874,0,0,0.043209876543209874,131.01234567901233,0)" xlink:href="#bn"/><use transform="matrix(0.043209876543209874,0,0,0.043209876543209874,135.33333333333331,0)" xlink:href="#bo"/><use transform="matrix(0.043209876543209874,0,0,0.043209876543209874,139.6543209876543,0)" xlink:href="#aS"/><use transform="matrix(0.043209876543209874,0,0,0.043209876543209874,148.29629629629628,0)" xlink:href="#aH"/><use transform="matrix(0.043209876543209874,0,0,0.043209876543209874,157.75925925925924,0)" xlink:href="#aG"/></g><path fill="#ba2b65" d="M24 0v-248h52v208h133V0H24" id="bp"/><path fill="#ba2b65" d="M133-34C117-15 103 5 69 4 32 3 11-16 11-54c-1-60 55-63 116-61 1-26-3-47-28-47-18 1-26 9-28 27l-52-2c7-38 36-58 82-57s74 22 75 68l1 82c-1 14 12 18 25 15v27c-30 8-71 5-69-32zm-48 3c29 0 43-24 42-57-32 0-66-3-65 30 0 17 8 27 23 27" id="bq"/><path fill="#ba2b65" d="M85 4C-2 5 27-109 22-190h50c7 57-23 150 33 157 60-5 35-97 40-157h50l1 190h-47c-2-12 1-28-3-38-12 25-28 42-61 42" id="br"/><path fill="#ba2b65" d="M135-194c87-1 58 113 63 194h-50c-7-57 23-157-34-157-59 0-34 97-39 157H25l-1-190h47c2 12-1 28 3 38 12-26 28-41 61-42" id="bs"/><path fill="#ba2b65" d="M190-63c-7 42-38 67-86 67-59 0-84-38-90-98-12-110 154-137 174-36l-49 2c-2-19-15-32-35-32-30 0-35 28-38 64-6 74 65 87 74 30" id="bt"/><path fill="#ba2b65" d="M114-157C55-157 80-60 75 0H25v-261h50l-1 109c12-26 28-41 61-42 86-1 58 113 63 194h-50c-7-57 23-157-34-157" id="bu"/><g id="G"><use transform="matrix(0.05,0,0,0.05,0,0)" xlink:href="#bp"/><use transform="matrix(0.05,0,0,0.05,10.950000000000001,0)" xlink:href="#bq"/><use transform="matrix(0.05,0,0,0.05,20.950000000000003,0)" xlink:href="#br"/><use transform="matrix(0.05,0,0,0.05,31.900000000000006,0)" xlink:href="#bs"/><use transform="matrix(0.05,0,0,0.05,42.85000000000001,0)" xlink:href="#bt"/><use transform="matrix(0.05,0,0,0.05,52.85,0)" xlink:href="#bu"/></g><path fill="#ba2b65" d="M88-194c31-1 46 15 58 34l-1-101h50l1 261h-48c-2-10 0-23-3-31C134-8 116 4 84 4 32 4 16-41 15-95c0-56 19-97 73-99zm17 164c33 0 40-30 41-66 1-37-9-64-41-64s-38 30-39 65c0 43 13 65 39 65" id="bv"/><g id="H"><use transform="matrix(0.05,0,0,0.05,0,0)" xlink:href="#bq"/><use transform="matrix(0.05,0,0,0.05,10,0)" xlink:href="#bs"/><use transform="matrix(0.05,0,0,0.05,20.950000000000003,0)" xlink:href="#bv"/></g><path fill="#ba2b65" d="M135-150c-39-12-60 13-60 57V0H25l-1-190h47c2 13-1 29 3 40 6-28 27-53 61-41v41" id="bw"/><path fill="#ba2b65" d="M185-48c-13 30-37 53-82 52C43 2 14-33 14-96s30-98 90-98c62 0 83 45 84 108H66c0 31 8 55 39 56 18 0 30-7 34-22zm-45-69c5-46-57-63-70-21-2 6-4 13-4 21h74" id="bx"/><path fill="#ba2b65" d="M195-6C206 82 75 100 31 46c-4-6-6-13-8-21l49-6c3 16 16 24 34 25 40 0 42-37 40-79-11 22-30 35-61 35-53 0-70-43-70-97 0-56 18-96 73-97 30 0 46 14 59 34l2-30h47zm-90-29c32 0 41-27 41-63 0-35-9-62-40-62-32 0-39 29-40 63 0 36 9 62 39 62" id="by"/><path fill="#ba2b65" d="M25-224v-37h50v37H25zM25 0v-190h50V0H25" id="bz"/><path fill="#ba2b65" d="M137-138c1-29-70-34-71-4 15 46 118 7 119 86 1 83-164 76-172 9l43-7c4 19 20 25 44 25 33 8 57-30 24-41C81-84 22-81 20-136c-2-80 154-74 161-7" id="bA"/><path fill="#ba2b65" d="M115-3C79 11 28 4 28-45v-112H4v-33h27l15-45h31v45h36v33H77v99c-1 23 16 31 38 25v30" id="bB"/><g id="I"><use transform="matrix(0.05,0,0,0.05,0,0)" xlink:href="#bw"/><use transform="matrix(0.05,0,0,0.05,7,0)" xlink:href="#bx"/><use transform="matrix(0.05,0,0,0.05,17,0)" xlink:href="#by"/><use transform="matrix(0.05,0,0,0.05,27.950000000000003,0)" xlink:href="#bz"/><use transform="matrix(0.05,0,0,0.05,32.95,0)" xlink:href="#bA"/><use transform="matrix(0.05,0,0,0.05,42.95,0)" xlink:href="#bB"/><use transform="matrix(0.05,0,0,0.05,48.900000000000006,0)" xlink:href="#bx"/><use transform="matrix(0.05,0,0,0.05,58.900000000000006,0)" xlink:href="#bw"/></g><g id="J"><use transform="matrix(0.05,0,0,0.05,0,0)" xlink:href="#bz"/><use transform="matrix(0.05,0,0,0.05,5,0)" xlink:href="#bs"/><use transform="matrix(0.05,0,0,0.05,15.950000000000001,0)" xlink:href="#bA"/><use transform="matrix(0.05,0,0,0.05,25.950000000000003,0)" xlink:href="#bB"/><use transform="matrix(0.05,0,0,0.05,31.900000000000002,0)" xlink:href="#bq"/><use transform="matrix(0.05,0,0,0.05,41.900000000000006,0)" xlink:href="#bs"/><use transform="matrix(0.05,0,0,0.05,52.85,0)" xlink:href="#bt"/><use transform="matrix(0.05,0,0,0.05,62.85,0)" xlink:href="#bx"/></g><g id="K"><use transform="matrix(0.05,0,0,0.05,0,0)" xlink:href="#br"/><use transform="matrix(0.05,0,0,0.05,10.950000000000001,0)" xlink:href="#bs"/><use transform="matrix(0.05,0,0,0.05,21.900000000000002,0)" xlink:href="#bv"/><use transform="matrix(0.05,0,0,0.05,32.85,0)" xlink:href="#bx"/><use transform="matrix(0.05,0,0,0.05,42.85,0)" xlink:href="#bw"/></g><path fill="#ba2b65" d="M230 0l2-204L168 0h-37L68-204 70 0H24v-248h70l56 185 57-185h69V0h-46" id="bC"/><path fill="#ba2b65" d="M110-194c64 0 96 36 96 99 0 64-35 99-97 99-61 0-95-36-95-99 0-62 34-99 96-99zm-1 164c35 0 45-28 45-65 0-40-10-65-43-65-34 0-45 26-45 65 0 36 10 65 43 65" id="bD"/><path fill="#ba2b65" d="M25 0v-261h50V0H25" id="bE"/><g id="L"><use transform="matrix(0.05,0,0,0.05,0,0)" xlink:href="#bC"/><use transform="matrix(0.05,0,0,0.05,14.950000000000001,0)" xlink:href="#bD"/><use transform="matrix(0.05,0,0,0.05,25.900000000000002,0)" xlink:href="#bv"/><use transform="matrix(0.05,0,0,0.05,36.85,0)" xlink:href="#br"/><use transform="matrix(0.05,0,0,0.05,47.800000000000004,0)" xlink:href="#bE"/><use transform="matrix(0.05,0,0,0.05,52.800000000000004,0)" xlink:href="#bx"/></g><path fill="#ba2b65" d="M24 0v-248h52V0H24" id="bF"/><path fill="#ba2b65" d="M24-248c120-7 223 5 221 122C244-46 201 0 124 0H24v-248zM76-40c74 7 117-18 117-86 0-67-45-88-117-82v168" id="bG"/><g id="M"><use transform="matrix(0.05,0,0,0.05,0,0)" xlink:href="#bF"/><use transform="matrix(0.05,0,0,0.05,5,0)" xlink:href="#bG"/></g><path fill="#ba2b65" d="M135-194c53 0 70 44 70 98 0 56-19 98-73 100-31 1-45-17-59-34 3 33 2 69 2 105H25l-1-265h48c2 10 0 23 3 31 11-24 29-35 60-35zM114-30c33 0 39-31 40-66 0-38-9-64-40-64-56 0-55 130 0 130" id="bH"/><path fill="#ba2b65" d="M123 10C108 53 80 86 19 72V37c35 8 53-11 59-39L3-190h52l48 148c12-52 28-100 44-148h51" id="bI"/><path fill="#ba2b65" d="M220-157c-53 9-28 100-34 157h-49v-107c1-27-5-49-29-50C55-147 81-57 75 0H25l-1-190h47c2 12-1 28 3 38 10-53 101-56 108 0 13-22 24-43 59-42 82 1 51 116 57 194h-49v-107c-1-25-5-48-29-50" id="bJ"/><path fill="#ba2b65" d="M24 0v-54h51V0H24" id="bK"/><path fill="#ba2b65" d="M25-224v-37h50v37H25zM75 22c2 45-34 59-81 51V38c22 5 31-5 31-27v-201h50V22" id="bL"/><g id="N"><use transform="matrix(0.043209876543209874,0,0,0.043209876543209874,0,0)" xlink:href="#bG"/><use transform="matrix(0.043209876543209874,0,0,0.043209876543209874,11.191358024691358,0)" xlink:href="#bx"/><use transform="matrix(0.043209876543209874,0,0,0.043209876543209874,19.833333333333332,0)" xlink:href="#bH"/><use transform="matrix(0.043209876543209874,0,0,0.043209876543209874,29.296296296296294,0)" xlink:href="#bE"/><use transform="matrix(0.043209876543209874,0,0,0.043209876543209874,33.61728395061728,0)" xlink:href="#bD"/><use transform="matrix(0.043209876543209874,0,0,0.043209876543209874,43.08024691358024,0)" xlink:href="#bI"/><use transform="matrix(0.043209876543209874,0,0,0.043209876543209874,51.72222222222221,0)" xlink:href="#bJ"/><use transform="matrix(0.043209876543209874,0,0,0.043209876543209874,65.54938271604938,0)" xlink:href="#bx"/><use transform="matrix(0.043209876543209874,0,0,0.043209876543209874,74.19135802469135,0)" xlink:href="#bs"/><use transform="matrix(0.043209876543209874,0,0,0.043209876543209874,83.65432098765432,0)" xlink:href="#bB"/><use transform="matrix(0.043209876543209874,0,0,0.043209876543209874,88.79629629629629,0)" xlink:href="#bG"/><use transform="matrix(0.043209876543209874,0,0,0.043209876543209874,99.98765432098764,0)" xlink:href="#bx"/><use transform="matrix(0.043209876543209874,0,0,0.043209876543209874,108.62962962962962,0)" xlink:href="#bA"/><use transform="matrix(0.043209876543209874,0,0,0.043209876543209874,117.2716049382716,0)" xlink:href="#bt"/><use transform="matrix(0.043209876543209874,0,0,0.043209876543209874,125.91358024691357,0)" xlink:href="#bw"/><use transform="matrix(0.043209876543209874,0,0,0.043209876543209874,131.96296296296296,0)" xlink:href="#bz"/><use transform="matrix(0.043209876543209874,0,0,0.043209876543209874,136.28395061728395,0)" xlink:href="#bH"/><use transform="matrix(0.043209876543209874,0,0,0.043209876543209874,145.7469135802469,0)" xlink:href="#bB"/><use transform="matrix(0.043209876543209874,0,0,0.043209876543209874,150.88888888888889,0)" xlink:href="#bD"/><use transform="matrix(0.043209876543209874,0,0,0.043209876543209874,160.35185185185185,0)" xlink:href="#bw"/><use transform="matrix(0.043209876543209874,0,0,0.043209876543209874,165.53703703703704,0)" xlink:href="#bK"/><use transform="matrix(0.043209876543209874,0,0,0.043209876543209874,169.85802469135803,0)" xlink:href="#bL"/><use transform="matrix(0.043209876543209874,0,0,0.043209876543209874,174.179012345679,0)" xlink:href="#bA"/><use transform="matrix(0.043209876543209874,0,0,0.043209876543209874,182.820987654321,0)" xlink:href="#bD"/><use transform="matrix(0.043209876543209874,0,0,0.043209876543209874,192.28395061728395,0)" xlink:href="#bs"/></g><g id="O"><use transform="matrix(0.05,0,0,0.05,0,0)" xlink:href="#bD"/><use transform="matrix(0.05,0,0,0.05,10.950000000000001,0)" xlink:href="#bs"/><use transform="matrix(0.05,0,0,0.05,21.900000000000002,0)" xlink:href="#bx"/></g><g id="P"><use transform="matrix(0.05,0,0,0.05,0,0)" xlink:href="#bH"/><use transform="matrix(0.05,0,0,0.05,10.950000000000001,0)" xlink:href="#bx"/><use transform="matrix(0.05,0,0,0.05,20.950000000000003,0)" xlink:href="#bw"/></g><g id="Q"><use transform="matrix(0.05,0,0,0.05,0,0)" xlink:href="#bs"/><use transform="matrix(0.05,0,0,0.05,10.950000000000001,0)" xlink:href="#bD"/><use transform="matrix(0.05,0,0,0.05,21.900000000000002,0)" xlink:href="#bv"/><use transform="matrix(0.05,0,0,0.05,32.85,0)" xlink:href="#bx"/></g></defs></g></svg>