<?xml version="1.0" encoding="UTF-8" standalone="no"?>
<svg id="svg3903" xmlns:rdf="http://www.w3.org/1999/02/22-rdf-syntax-ns#" xmlns="http://www.w3.org/2000/svg" height="888" width="1080" version="1.1" xmlns:cc="http://creativecommons.org/ns#" xmlns:xlink="http://www.w3.org/1999/xlink" xmlns:dc="http://purl.org/dc/elements/1.1/">
 <metadata id="metadata4819">
  <rdf:RDF>
   <cc:Work rdf:about="">
    <dc:format>image/svg+xml</dc:format>
    <dc:type rdf:resource="http://purl.org/dc/dcmitype/StillImage"/>
    <dc:title/>
   </cc:Work>
  </rdf:RDF>
 </metadata>
 <g id="g3905" transform="translate(-107.99999999999997 -12)">
  <path id="path3907" stroke="#999" stroke-width="6" d="M335,784c-43.08,0-78-28.65-78-64,0-28.28,21.12-52.13,53.9-60.87-1.9-83.13,128.1-99.13,180.1-67.13,26-48,156-32,156,16,78-16,156,48,104,128,52,64,0,144-104,112-26,41.6-130,41.6-156,0-52,32-156,16-156-64z" fill="none"/>
  <use id="use3909" xlink:href="#a" transform="matrix(1,0,0,1,262,565) translate(255 160.4)"/>
  <path id="path3911" stroke="#fff" stroke-width="2" d="M328,420c0,44.18-35.82,80-80,80s-80-35.82-80-80,35.82-80,80-80,80,35.82,80,80z" fill="#ba2b65"/>
  <use id="use3913" xlink:href="#a" transform="matrix(1,0,0,1,173,345) translate(75 80.4)"/>
  <path id="path3915" stroke="#de5f85" stroke-width="2" d="M608,420c0,44.18-35.82,80-80,80s-80-35.82-80-80,35.82-80,80-80,80,35.82,80,80z" fill="#de5f85"/>
  <path id="path3921" stroke="#7ab648" stroke-width="2" d="M908,420c0,44.18-35.82,80-80,80s-80-35.82-80-80,35.82-80,80-80,80,35.82,80,80z" fill="#7ab648"/>
  <path id="path3927" stroke="#fff" stroke-width="2" d="M308,420c0,44.18-35.82,80-80,80s-80-35.82-80-80,35.82-80,80-80,80,35.82,80,80z" fill="#ba2b65"/>
  <use id="use3929" xlink:href="#a" transform="matrix(1,0,0,1,153,345) translate(75 80.4)"/>
  <path id="path3931" stroke="#de5f85" stroke-width="3" d="M430,427c0,2.76-2.24,5-5,5h-61.33c-2.77,0-5,2.24-5,5v2.33c0,2.76-1.6,3.42-3.54,1.47l-17.6-17.6c-1.95-1.95-1.95-5.12,0-7.07l17.6-17.6c1.95-1.95,3.54-1.3,3.54,1.47v2.33c0,2.76,2.23,5,5,5h61.33c2.76,0,5,2.24,5,5z" fill="#fff"/>
  <use id="use3933" xlink:href="#a" transform="matrix(6.123233995736766e-17,1,-1,6.123233995736766e-17,425.0011573934536,399.9999999999999) translate(20 48.9)"/>
  <path id="path3935" stroke="#fff" stroke-width="2" d="M288,420c0,44.18-35.82,80-80,80s-80-35.82-80-80,35.82-80,80-80,80,35.82,80,80z" fill="#ba2b65"/>
  <path id="path3941" stroke="#ba2b65" stroke-width="3" d="M535.33,160c2.76,0,5,2.24,5,5v125.33c0,2.76,2.24,5,5,5h2.34c2.76,0,3.4,1.6,1.46,3.54l-17.6,17.6c-1.95,1.95-5.1,1.95-7.07,0l-17.6-17.6c-1.94-1.95-1.3-3.54,1.47-3.54h2.34c2.76,0,5-2.24,5-5v-125.33c0-2.76,2.24-5,5-5z" fill="#fff"/>
  <use id="use3943" xlink:href="#a" transform="matrix(1,0,0,1,508.33333333333337,165.00000000000006) translate(20 80.4)"/>
  <path id="path3945" stroke="#7ab648" stroke-width="3" d="M1026.4,188.62c1.95,1.95,1.95,5.12,0,7.07l-88.62,88.6c-1.96,1.96-1.96,5.13,0,7.08l1.65,1.65c1.95,1.96,1.3,3.54-1.47,3.54h-24.86c-2.76,0-5-2.24-5-5v-24.9c0-2.75,1.58-3.4,3.53-1.45l1.65,1.65c1.96,1.95,5.12,1.95,7.07,0l88.63-88.62c1.95-1.96,5.12-1.96,7.07,0z" fill="#fff"/>
  <use id="use3947" xlink:href="#a" transform="matrix(0.7071067811865476,0.7071067811865475,-0.7071067811865475,0.7071067811865476,1003.7932418923223,173.06055804767334) translate(20 80.4)"/>
  <path id="path3949" stroke="#7ab648" stroke-width="3" d="M715.33,427.33c0,2.76-2.24,5-5,5h-40c-2.76,0-5,2.24-5,5v2.34c0,2.76-1.58,3.4-3.53,1.46l-17.6-17.6c-1.95-1.95-1.95-5.1,0-7.07l17.6-17.6c1.95-1.94,3.53-1.3,3.53,1.47v2.34c0,2.76,2.24,5,5,5h40c2.76,0,5,2.24,5,5z" fill="#fff"/>
  <use id="use3951" xlink:href="#a" transform="matrix(6.123233995736766e-17,1,-1,6.123233995736766e-17,710.3333333333333,400.33333333333337) translate(20 37.9)"/>
  <path id="path3953" d="M576.75,450c0-2.76,2.24-5,5-5h192.5c2.76,0,5,2.24,5,5v73c0,2.76-2.24,5-5,5h-192.5c-2.76,0-5-2.24-5-5z" fill="none"/>
  <path id="path3965" d="M988,117c0-2.76,2.24-5,5-5h170c2.76,0,5,2.24,5,5v64.8c0,2.76-2.24,5-5,5h-170c-2.76,0-5-2.24-5-5z" fill="none"/>
  <path id="path3975" stroke="#fff" stroke-width="2" d="M1168,464.8c0,6.2-22.4,11.2-50,11.2s-50-5-50-11.2v-89.6c0-6.2,22.4-11.2,50-11.2s50,5,50,11.2z" fill="#00624f"/>
  <path id="path3977" stroke="#fff" stroke-width="2" d="M1168,375.2c0,6.2-22.4,11.2-50,11.2s-50-5-50-11.2" fill="none"/>
  <path id="path3981" stroke="#ce6925" stroke-width="3" d="M841.33,160c2.76,0,5,2.24,5,5v125.33c0,2.76,2.24,5,5,5h2.34c2.76,0,3.4,1.6,1.46,3.54l-17.6,17.6c-1.95,1.95-5.1,1.95-7.07,0l-17.6-17.6c-1.94-1.95-1.3-3.54,1.47-3.54h2.34c2.76,0,5-2.24,5-5v-125.33c0-2.76,2.24-5,5-5z" fill="#fff"/>
  <use id="use3983" xlink:href="#q" transform="matrix(1,0,0,1,814.3333333333334,165.0000000000001) translate(20 80.4)"/>
  <path id="path3985" d="M655,172c0-2.76,2.24-5,5-5h159c2.76,0,5,2.24,5,5v108c0,2.76-2.24,5-5,5h-159c-2.76,0-5-2.24-5-5z" fill="none"/>
  <path id="path3995" stroke="#00624f" stroke-width="3" d="M950.67,412.33c0-2.76,2.24-5,5-5h40c2.76,0,5-2.24,5-5v-2.33c0-2.76,1.58-3.42,3.53-1.46l17.6,17.6c1.95,1.94,1.95,5.1,0,7.06l-17.6,17.6c-1.95,1.95-3.53,1.3-3.53-1.47v-2.33c0-2.76-2.24-5-5-5h-40c-2.76,0-5-2.24-5-5z" fill="#fff"/>
  <use id="use3997" xlink:href="#a" transform="matrix(6.123233995736766e-17,-1,1,6.123233995736766e-17,955.6666666666667,439.33333333333314) translate(20 37.9)"/>
  <path id="path3999" d="M886.75,450.5c0-2.76,2.24-5,5-5h192.5c2.76,0,5,2.24,5,5v73c0,2.76-2.24,5-5,5h-192.5c-2.76,0-5-2.24-5-5z" fill="none"/>
  <path id="path4011" stroke="#af591f" stroke-width="2" d="M807.5,32h53.6l13.4,13.4v66.6h-67z" fill="#ce6925"/>
  <path id="path4013" d="M861.1,32l13.4,13.4h-13.4z" fill="#af591f"/>
  <use id="use4015" xlink:href="#A" transform="matrix(1,0,0,1,812.5,37) translate(28.5 40.4)"/>
  <path id="path4017" stroke="#666" stroke-width="2" d="M558,720c0,16.57-13.43,30-30,30s-30-13.43-30-30,13.43-30,30-30,30,13.43,30,30z" fill="#666"/>
  <use id="use4019" xlink:href="#a" transform="matrix(1,0,0,1,503,695) translate(25 30.4)"/>
  <path id="path4021" stroke="#999" stroke-width="2" d="M715,760c0,16.57-13.43,30-30,30s-30-13.43-30-30,13.43-30,30-30,30,13.43,30,30z" fill="#999"/>
  <use id="use4023" xlink:href="#a" transform="matrix(1,0,0,1,660,735) translate(25 30.4)"/>
  <path id="path4025" stroke="#999" stroke-width="2" d="M466,810c0,16.57-13.43,30-30,30s-30-13.43-30-30,13.43-30,30-30,30,13.43,30,30z" fill="#999"/>
  <use id="use4027" xlink:href="#a" transform="matrix(1,0,0,1,411,785) translate(25 30.4)"/>
  <path id="path4029" stroke="#999" stroke-width="2" d="M498,630c0,16.57-13.43,30-30,30s-30-13.43-30-30,13.43-30,30-30,30,13.43,30,30z" fill="#999"/>
  <use id="use4031" xlink:href="#a" transform="matrix(1,0,0,1,443,605) translate(25 30.4)"/>
  <path id="path4033" stroke="#666" stroke-width="2" d="M239.33,528.12c1.6-2.25,4.72-2.78,6.97-1.18l232.62,165.03c1.64,1.16,3.92,0.77,5.1-0.87,1.16-1.64,2.37-1.37,2.7,0.62l2.02,11.83c0.47,2.72-1.37,5.3-4.1,5.77l-11.82,2c-1.98,0.35-2.65-0.7-1.48-2.36,1.16-1.64,0.78-3.92-0.87-5.1l-232.62-165c-2.25-1.6-2.78-4.73-1.18-6.98z" fill="#666"/>
  <use id="use4035" xlink:href="#a" transform="matrix(0.8156014133990587,0.5786141498973715,-0.5786141498973715,0.8156014133990587,247.63295077575427,525.0629477892728) translate(149.5 15.4)"/>
  <path id="path4037" stroke="#666" stroke-width="2" d="M529.97,529c2.76,0,5,2.24,5,5v113.84c0,1.92,1.56,3.48,3.48,3.48s2.38,1.1,1.02,2.46l-7.93,7.94c-1.96,1.95-5.12,1.95-7.08,0l-7.93-7.94c-1.36-1.36-0.9-2.46,1.02-2.46s3.48-1.56,3.48-3.48v-113.84c0-2.76,2.24-5,5-5z" fill="#666"/>
  <g id="g4039">
   <use id="use4041" xlink:href="#a" transform="matrix(6.123233995736766e-17,1,-1,6.123233995736766e-17,536.9337617185435,534) translate(63.5 14.4)"/>
  </g>
  <g id="g4043">
   <path id="path4045" stroke="#7ab648" stroke-width="2" d="M758.72,524.28c1.96,1.95,1.96,5.1,0,7.07l-169.07,169.07c-0.98,0.98-0.98,2.56,0,3.54,0.98,0.97,0.65,1.76-0.73,1.76h-6.64c-2.77,0-5-2.23-5-5v-6.64c0-1.38,0.8-1.7,1.76-0.73,0.98,0.98,2.56,0.98,3.54,0l169.07-169.07c1.96-1.96,5.12-1.96,7.07,0z" fill="#7ab648"/>
  </g>
  <g id="g4047">
   <use id="use4049" xlink:href="#B" transform="matrix(-0.7071067811865481,0.707106781186547,-0.707106781186547,-0.7071067811865481,758.7240126401687,531.3470551716971) translate(123.5 14.4)"/>
  </g>
  <path id="path4051" d="M728,534c0-2.76,2.24-5,5-5h192.5c2.76,0,5,2.24,5,5v73c0,2.76-2.24,5-5,5h-192.5c-2.76,0-5-2.24-5-5z" fill="none"/>
  <path id="path4063" d="M751,117c0-2.76,2.24-5,5-5h170c2.76,0,5,2.24,5,5v50c0,2.76-2.24,5-5,5h-170c-2.76,0-5-2.24-5-5z" fill="none"/>
  <g id="g4065">
   <use id="use4067" xlink:href="#F" transform="matrix(1,0,0,1,756,117) translate(1.3888888888889 28.11111111111111)"/>
  </g>
  <path id="path4069" d="M334,184c0-2.76,2.24-5,5-5h170c2.76,0,5,2.24,5,5v86.4c0,2.76-2.24,5-5,5h-170c-2.76,0-5-2.24-5-5z" fill="none"/>
  <path id="path4087" stroke="#9e2556" stroke-width="2" d="M494.5,32h53.6l13.4,13.4v66.6h-67z" fill="#ba2b65"/>
  <path id="path4089" d="M548.1,32l13.4,13.4h-13.4z" fill="#9e2556"/>
  <g id="g4091">
   <use id="use4093" xlink:href="#A" transform="matrix(1,0,0,1,499.5,37) translate(28.5 40.4)"/>
  </g>
  <path id="path4095" d="M438,117c0-2.76,2.24-5,5-5h170c2.76,0,5,2.24,5,5v50c0,2.76-2.24,5-5,5h-170c-2.76,0-5-2.24-5-5z" fill="none"/>
  <g id="g4097">
   <use id="use4099" xlink:href="#N" transform="matrix(1,0,0,1,443,117) translate(-15.873456790123456 28.11111111111111)"/>
  </g>
  <path id="path4101" d="M272.67,481c0-2.76,2.24-5,5-5h115.33c2.76,0,5,2.24,5,5v60.87c0,2.76-2.24,5-5,5h-115.33c-2.76,0-5-2.24-5-5z" fill="none"/>
  <defs id="defs4111">
   <g id="b"></g>
   <g id="c"></g>
   <g id="d"></g>
   <g id="e"></g>
   <g id="f"></g>
   <g id="g"></g>
   <g id="h"></g>
   <g id="i"></g>
   <g id="j"></g>
   <g id="k"></g>
   <g id="l"></g>
   <g id="m"></g>
   <g id="n"></g>
   <g id="o"></g>
   <g id="p"></g>
   <path id="aG" d="M135-194c87-1,58,113,63,194h-50c-7-57,23-157-34-157-59,0-34,97-39,157h-50l-1-190h47c2,12-1,28,3,38,12-26,28-41,61-42" fill="#ce6925"/>
   <path id="aH" d="M110-194c64,0,96,36,96,99,0,64-35,99-97,99-61,0-95-36-95-99,0-62,34-99,96-99zm-1,164c35,0,45-28,45-65,0-40-10-65-43-65-34,0-45,26-45,65,0,36,10,65,43,65" fill="#ce6925"/>
   <path id="aI" d="M85,4c-87,1-58-113-63-194h50c7,57-23,150,33,157,60-5,35-97,40-157h50l1,190h-47c-2-12,1-28-3-38-12,25-28,42-61,42" fill="#ce6925"/>
   <path id="aJ" d="M190-63c-7,42-38,67-86,67-59,0-84-38-90-98-12-110,154-137,174-36l-49,2c-2-19-15-32-35-32-30,0-35,28-38,64-6,74,65,87,74,30" fill="#ce6925"/>
   <path id="aK" d="M185-48c-13,30-37,53-82,52-60-2-89-37-89-100s30-98,90-98c62,0,83,45,84,108h-122c0,31,8,55,39,56,18,0,30-7,34-22zm-45-69c5-46-57-63-70-21-2,6-4,13-4,21h74" fill="#ce6925"/>
   <g id="r"></g>
   <path id="aL" d="M230,0l2-204-64,204h-37l-63-204,2,204h-46v-248h70l56,185,57-185h69v248h-46" fill="#ce6925"/>
   <path id="aM" d="M88-194c31-1,46,15,58,34l-1-101h50l1,261h-48c-2-10,0-23-3-31-11,23-29,35-61,35-52,0-68-45-69-99,0-56,19-97,73-99zm17,164c33,0,40-30,41-66,1-37-9-64-41-64s-38,30-39,65c0,43,13,65,39,65" fill="#ce6925"/>
   <path id="aN" d="M25,0v-261h50v261h-50" fill="#ce6925"/>
   <g id="s"></g>
   <path id="aR" d="M115-3c-36,14-87,7-87-42v-112h-24v-33h27l15-45h31v45h36v33h-36v99c-1,23,16,31,38,25v30" fill="#ce6925"/>
   <g id="t"></g>
   <path id="aS" d="M137-138c1-29-70-34-71-4,15,46,118,7,119,86,1,83-164,76-172,9l43-7c4,19,20,25,44,25,33,8,57-30,24-41-43-14-102-11-104-66-2-80,154-74,161-7" fill="#ce6925"/>
   <path id="aT" d="M25-224v-37h50v37h-50zm0,224v-190h50v190h-50" fill="#ce6925"/>
   <g id="u"></g>
   <g id="v"></g>
   <g id="w"></g>
   <g id="x"></g>
   <g id="y"></g>
   <g id="z"></g>
   <g id="C"></g>
   <g id="D"></g>
   <g id="E"></g>
   <path id="bk" d="M24-248c120-7,223,5,221,122-1,80-44,126-121,126h-100v-248zm52,208c74,7,117-18,117-86,0-67-45-88-117-82v168" fill="#ce6925"/>
   <path id="bl" d="M135-150c-39-12-60,13-60,57v93h-50l-1-190h47c2,13-1,29,3,40,6-28,27-53,61-41v41" fill="#ce6925"/>
   <path id="bm" d="M135-194c53,0,70,44,70,98,0,56-19,98-73,100-31,1-45-17-59-34,3,33,2,69,2,105h-50l-1-265h48c2,10,0,23,3,31,11-24,29-35,60-35zm-21,164c33,0,39-31,40-66,0-38-9-64-40-64-56,0-55,130,0,130" fill="#ce6925"/>
   <path id="bn" d="M24,0v-54h51v54h-51" fill="#ce6925"/>
   <path id="bo" d="M25-224v-37h50v37h-50zm50,246c2,45-34,59-81,51v-35c22,5,31-5,31-27v-201h50v212" fill="#ce6925"/>
   <g id="F">
    <use id="use4593" xlink:href="#aL" transform="matrix(0.043209876543209874,0,0,0.043209876543209874,0,0)"/>
    <use id="use4595" xlink:href="#aH" transform="matrix(0.043209876543209874,0,0,0.043209876543209874,12.919753086419753,0)"/>
    <use id="use4597" xlink:href="#aM" transform="matrix(0.043209876543209874,0,0,0.043209876543209874,22.382716049382715,0)"/>
    <use id="use4599" xlink:href="#aI" transform="matrix(0.043209876543209874,0,0,0.043209876543209874,31.845679012345677,0)"/>
    <use id="use4601" xlink:href="#aN" transform="matrix(0.043209876543209874,0,0,0.043209876543209874,41.30864197530864,0)"/>
    <use id="use4603" xlink:href="#aK" transform="matrix(0.043209876543209874,0,0,0.043209876543209874,45.629629629629626,0)"/>
    <use id="use4605" xlink:href="#bk" transform="matrix(0.043209876543209874,0,0,0.043209876543209874,54.2716049382716,0)"/>
    <use id="use4607" xlink:href="#aK" transform="matrix(0.043209876543209874,0,0,0.043209876543209874,65.46296296296296,0)"/>
    <use id="use4609" xlink:href="#aS" transform="matrix(0.043209876543209874,0,0,0.043209876543209874,74.10493827160494,0)"/>
    <use id="use4611" xlink:href="#aJ" transform="matrix(0.043209876543209874,0,0,0.043209876543209874,82.74691358024691,0)"/>
    <use id="use4613" xlink:href="#bl" transform="matrix(0.043209876543209874,0,0,0.043209876543209874,91.38888888888889,0)"/>
    <use id="use4615" xlink:href="#aT" transform="matrix(0.043209876543209874,0,0,0.043209876543209874,97.43827160493827,0)"/>
    <use id="use4617" xlink:href="#bm" transform="matrix(0.043209876543209874,0,0,0.043209876543209874,101.75925925925925,0)"/>
    <use id="use4619" xlink:href="#aR" transform="matrix(0.043209876543209874,0,0,0.043209876543209874,111.22222222222221,0)"/>
    <use id="use4621" xlink:href="#aH" transform="matrix(0.043209876543209874,0,0,0.043209876543209874,116.36419753086419,0)"/>
    <use id="use4623" xlink:href="#bl" transform="matrix(0.043209876543209874,0,0,0.043209876543209874,125.82716049382715,0)"/>
    <use id="use4625" xlink:href="#bn" transform="matrix(0.043209876543209874,0,0,0.043209876543209874,131.01234567901233,0)"/>
    <use id="use4627" xlink:href="#bo" transform="matrix(0.043209876543209874,0,0,0.043209876543209874,135.33333333333331,0)"/>
    <use id="use4629" xlink:href="#aS" transform="matrix(0.043209876543209874,0,0,0.043209876543209874,139.6543209876543,0)"/>
    <use id="use4631" xlink:href="#aH" transform="matrix(0.043209876543209874,0,0,0.043209876543209874,148.29629629629628,0)"/>
    <use id="use4633" xlink:href="#aG" transform="matrix(0.043209876543209874,0,0,0.043209876543209874,157.75925925925924,0)"/>
   </g>
   <path id="bs" d="M135-194c87-1,58,113,63,194h-50c-7-57,23-157-34-157-59,0-34,97-39,157h-50l-1-190h47c2,12-1,28,3,38,12-26,28-41,61-42" fill="#ba2b65"/>
   <path id="bt" d="M190-63c-7,42-38,67-86,67-59,0-84-38-90-98-12-110,154-137,174-36l-49,2c-2-19-15-32-35-32-30,0-35,28-38,64-6,74,65,87,74,30" fill="#ba2b65"/>
   <g id="G"></g>
   <g id="H"></g>
   <path id="bw" d="M135-150c-39-12-60,13-60,57v93h-50l-1-190h47c2,13-1,29,3,40,6-28,27-53,61-41v41" fill="#ba2b65"/>
   <path id="bx" d="M185-48c-13,30-37,53-82,52-60-2-89-37-89-100s30-98,90-98c62,0,83,45,84,108h-122c0,31,8,55,39,56,18,0,30-7,34-22zm-45-69c5-46-57-63-70-21-2,6-4,13-4,21h74" fill="#ba2b65"/>
   <path id="bz" d="M25-224v-37h50v37h-50zm0,224v-190h50v190h-50" fill="#ba2b65"/>
   <path id="bA" d="M137-138c1-29-70-34-71-4,15,46,118,7,119,86,1,83-164,76-172,9l43-7c4,19,20,25,44,25,33,8,57-30,24-41-43-14-102-11-104-66-2-80,154-74,161-7" fill="#ba2b65"/>
   <path id="bB" d="M115-3c-36,14-87,7-87-42v-112h-24v-33h27l15-45h31v45h36v33h-36v99c-1,23,16,31,38,25v30" fill="#ba2b65"/>
   <g id="I"></g>
   <g id="J"></g>
   <g id="K"></g>
   <path id="bD" d="M110-194c64,0,96,36,96,99,0,64-35,99-97,99-61,0-95-36-95-99,0-62,34-99,96-99zm-1,164c35,0,45-28,45-65,0-40-10-65-43-65-34,0-45,26-45,65,0,36,10,65,43,65" fill="#ba2b65"/>
   <path id="bE" d="M25,0v-261h50v261h-50" fill="#ba2b65"/>
   <g id="L"></g>
   <path id="bG" d="M24-248c120-7,223,5,221,122-1,80-44,126-121,126h-100v-248zm52,208c74,7,117-18,117-86,0-67-45-88-117-82v168" fill="#ba2b65"/>
   <g id="M"></g>
   <path id="bH" d="M135-194c53,0,70,44,70,98,0,56-19,98-73,100-31,1-45-17-59-34,3,33,2,69,2,105h-50l-1-265h48c2,10,0,23,3,31,11-24,29-35,60-35zm-21,164c33,0,39-31,40-66,0-38-9-64-40-64-56,0-55,130,0,130" fill="#ba2b65"/>
   <path id="bI" d="M123,10c-15,43-43,76-104,62v-35c35,8,53-11,59-39l-75-188h52l48,148c12-52,28-100,44-148h51" fill="#ba2b65"/>
   <path id="bJ" d="M220-157c-53,9-28,100-34,157h-49v-107c1-27-5-49-29-50-53,10-27,100-33,157h-50l-1-190h47c2,12-1,28,3,38,10-53,101-56,108,0,13-22,24-43,59-42,82,1,51,116,57,194h-49v-107c-1-25-5-48-29-50" fill="#ba2b65"/>
   <path id="bK" d="M24,0v-54h51v54h-51" fill="#ba2b65"/>
   <path id="bL" d="M25-224v-37h50v37h-50zm50,246c2,45-34,59-81,51v-35c22,5,31-5,31-27v-201h50v212" fill="#ba2b65"/>
   <g id="N">
    <use id="use4742" xlink:href="#bG" transform="matrix(0.043209876543209874,0,0,0.043209876543209874,0,0)"/>
    <use id="use4744" xlink:href="#bx" transform="matrix(0.043209876543209874,0,0,0.043209876543209874,11.191358024691358,0)"/>
    <use id="use4746" xlink:href="#bH" transform="matrix(0.043209876543209874,0,0,0.043209876543209874,19.833333333333332,0)"/>
    <use id="use4748" xlink:href="#bE" transform="matrix(0.043209876543209874,0,0,0.043209876543209874,29.296296296296294,0)"/>
    <use id="use4750" xlink:href="#bD" transform="matrix(0.043209876543209874,0,0,0.043209876543209874,33.61728395061728,0)"/>
    <use id="use4752" xlink:href="#bI" transform="matrix(0.043209876543209874,0,0,0.043209876543209874,43.08024691358024,0)"/>
    <use id="use4754" xlink:href="#bJ" transform="matrix(0.043209876543209874,0,0,0.043209876543209874,51.72222222222221,0)"/>
    <use id="use4756" xlink:href="#bx" transform="matrix(0.043209876543209874,0,0,0.043209876543209874,65.54938271604938,0)"/>
    <use id="use4758" xlink:href="#bs" transform="matrix(0.043209876543209874,0,0,0.043209876543209874,74.19135802469135,0)"/>
    <use id="use4760" xlink:href="#bB" transform="matrix(0.043209876543209874,0,0,0.043209876543209874,83.65432098765432,0)"/>
    <use id="use4762" xlink:href="#bG" transform="matrix(0.043209876543209874,0,0,0.043209876543209874,88.79629629629629,0)"/>
    <use id="use4764" xlink:href="#bx" transform="matrix(0.043209876543209874,0,0,0.043209876543209874,99.98765432098764,0)"/>
    <use id="use4766" xlink:href="#bA" transform="matrix(0.043209876543209874,0,0,0.043209876543209874,108.62962962962962,0)"/>
    <use id="use4768" xlink:href="#bt" transform="matrix(0.043209876543209874,0,0,0.043209876543209874,117.2716049382716,0)"/>
    <use id="use4770" xlink:href="#bw" transform="matrix(0.043209876543209874,0,0,0.043209876543209874,125.91358024691357,0)"/>
    <use id="use4772" xlink:href="#bz" transform="matrix(0.043209876543209874,0,0,0.043209876543209874,131.96296296296296,0)"/>
    <use id="use4774" xlink:href="#bH" transform="matrix(0.043209876543209874,0,0,0.043209876543209874,136.28395061728395,0)"/>
    <use id="use4776" xlink:href="#bB" transform="matrix(0.043209876543209874,0,0,0.043209876543209874,145.7469135802469,0)"/>
    <use id="use4778" xlink:href="#bD" transform="matrix(0.043209876543209874,0,0,0.043209876543209874,150.88888888888889,0)"/>
    <use id="use4780" xlink:href="#bw" transform="matrix(0.043209876543209874,0,0,0.043209876543209874,160.35185185185185,0)"/>
    <use id="use4782" xlink:href="#bK" transform="matrix(0.043209876543209874,0,0,0.043209876543209874,165.53703703703704,0)"/>
    <use id="use4784" xlink:href="#bL" transform="matrix(0.043209876543209874,0,0,0.043209876543209874,169.85802469135803,0)"/>
    <use id="use4786" xlink:href="#bA" transform="matrix(0.043209876543209874,0,0,0.043209876543209874,174.179012345679,0)"/>
    <use id="use4788" xlink:href="#bD" transform="matrix(0.043209876543209874,0,0,0.043209876543209874,182.820987654321,0)"/>
    <use id="use4790" xlink:href="#bs" transform="matrix(0.043209876543209874,0,0,0.043209876543209874,192.28395061728395,0)"/>
   </g>
   <g id="O"></g>
   <g id="P"></g>
   <g id="Q"></g>
  </defs>
  <flowRoot id="flowRoot4821" style="letter-spacing:0px;text-anchor:middle;word-spacing:0px;text-align:center;" line-height="125%" font-weight="normal" xml:space="preserve" font-size="40px" transform="translate(70.941732,7.1055118)" font-style="normal" font-family="Sans" fill="#7ab648"><flowRegion id="flowRegion4823"><rect id="rect4825" style="text-align:center;" height="65.726" width="175.85" y="104.18" x="910.72"/></flowRegion><flowPara id="flowPara4827" style="writing-mode:lr-tb;text-anchor:middle;text-align:center;" font-weight="bold" font-size="18px" line-height="125%" font-stretch="normal" font-variant="normal" font-style="normal" font-family="Sans">Nutzeranfrage oder modulübergreifende Anfrage</flowPara></flowRoot>
  <flowRoot id="flowRoot4833" style="text-anchor:start;letter-spacing:0px;word-spacing:0px;text-align:start;writing-mode:lr;" font-weight="bold" xml:space="preserve" font-size="18px" line-height="125%" font-stretch="normal" font-variant="normal" font-style="normal" font-family="Sans" fill="black"><flowRegion id="flowRegion4835"><rect id="rect4837" y="144.89" width="1.9777" x="218.53" height="25.71"/></flowRegion><flowPara id="flowPara4839"/></flowRoot>
  <flowRoot id="flowRoot4841" style="text-anchor:start;letter-spacing:0px;word-spacing:0px;text-align:start;writing-mode:lr;" font-weight="bold" xml:space="preserve" font-size="18px" line-height="125%" font-stretch="normal" font-variant="normal" font-style="normal" font-family="Sans" fill="black"><flowRegion id="flowRegion4843"><rect id="rect4845" y="164.17" width="111.24" x="202.71" height="95.423"/></flowRegion><flowPara id="flowPara4847"/></flowRoot>
  <flowRoot id="flowRoot4849" style="writing-mode:lr-tb;letter-spacing:0px;text-anchor:middle;word-spacing:0px;text-align:center;" line-height="125%" font-weight="bold" xml:space="preserve" font-size="18px" transform="translate(105.03349,28.810211)" font-stretch="normal" font-variant="normal" font-style="normal" font-family="Sans" fill="#ba2b65"><flowRegion id="flowRegion4851"><rect id="rect4853" style="text-align:center;" height="67.735" width="187.88" y="164.67" x="219.03"/></flowRegion><flowPara id="flowPara4857">Modul unter einer Modul-ID starten und registrieren</flowPara></flowRoot>
  <flowRoot id="flowRoot4861" style="writing-mode:lr-tb;letter-spacing:0px;text-anchor:middle;word-spacing:0px;text-align:center;" line-height="125%" font-weight="bold" xml:space="preserve" font-size="18px" transform="translate(108,12)" font-stretch="normal" font-variant="normal" font-style="normal" font-family="Sans" fill="#ce6925"><flowRegion id="flowRegion4863"><rect id="rect4865" style="text-align:center;" height="94.434" width="162.17" y="171.59" x="548.31" fill="#ce6925"/></flowRegion><flowPara id="flowPara4867">Modul bekanntmachen</flowPara><flowPara id="flowPara4869">Modul-Mandanten-Auswahl</flowPara></flowRoot>
  <flowRoot id="flowRoot5639" style="writing-mode:lr-tb;letter-spacing:0px;text-anchor:start;word-spacing:0px;text-align:start;" line-height="125%" font-weight="bold" xml:space="preserve" font-size="18px" transform="translate(108.69921,12)" font-stretch="normal" font-variant="normal" font-style="normal" font-family="Sans" fill="#ffffff"><flowRegion id="flowRegion5641"><rect id="rect5643" height="17.655" width="94.394" y="408.17" x="963.51" fill="#FFF"/></flowRegion><flowPara id="flowPara5645">Datenbank</flowPara></flowRoot>
  <flowRoot id="flowRoot5647" style="writing-mode:lr-tb;letter-spacing:0px;text-anchor:middle;word-spacing:0px;text-align:center;" line-height="125%" font-weight="bold" xml:space="preserve" font-size="18px" transform="translate(108,12)" font-stretch="normal" font-variant="normal" font-style="normal" font-family="Sans" fill="#00624f"><flowRegion id="flowRegion5649"><rect id="rect5651" style="text-align:center;" height="65.77" width="159.54" y="453.79" x="801.3" fill="#00624f"/></flowRegion><flowPara id="flowPara5653">Modulliste</flowPara><flowPara id="flowPara5655">Mandanten-auswahlliste</flowPara></flowRoot>
  <flowRoot id="flowRoot5657" style="writing-mode:lr-tb;letter-spacing:0px;text-anchor:middle;word-spacing:0px;text-align:center;" line-height="125%" font-weight="bold" xml:space="preserve" font-size="18px" transform="translate(108,12)" font-stretch="normal" font-variant="normal" font-style="normal" font-family="Sans" fill="#ffffff"><flowRegion id="flowRegion5659"><rect id="rect5661" style="text-align:center;" ry="1.3984" height="60.831" width="120.26" y="384.57" x="360.09" fill="#FFF"/></flowRegion><flowPara id="flowPara5663">Modul-Finde-Service</flowPara></flowRoot>
  <flowRoot id="flowRoot5657-1" style="writing-mode:lr-tb;letter-spacing:0px;text-anchor:middle;word-spacing:0px;text-align:center;" font-weight="bold" xml:space="preserve" transform="translate(409.15575,8.4737263)" line-height="125%" font-stretch="normal" font-size="18px" font-variant="normal" font-style="normal" font-family="Sans" fill="#ffffff"><flowRegion id="flowRegion5659-7"><rect id="rect5661-4" style="text-align:center;" ry="1.3984" height="60.831" width="120.26" y="384.57" x="360.09" fill="#FFF"/></flowRegion><flowPara id="flowPara5692">Proxy-</flowPara><flowPara id="flowPara5696">Service</flowPara></flowRoot>
  <flowRoot id="flowRoot5698" style="writing-mode:lr-tb;letter-spacing:0px;text-anchor:middle;word-spacing:0px;text-align:center;" line-height="125%" font-weight="bold" xml:space="preserve" font-size="18px" transform="translate(108,12)" font-stretch="normal" font-variant="normal" font-style="normal" font-family="Sans" fill="#ffffff"><flowRegion id="flowRegion5700"><rect id="rect5702" style="text-align:center;" ry="0" height="68.724" width="137.94" y="372.82" x="33.126" fill="#FFF"/></flowRegion><flowPara id="flowPara5704">Software-verteilung</flowPara><flowPara id="flowPara5706">(Service/Agent)</flowPara></flowRoot>
  <flowRoot id="flowRoot5708" style="text-anchor:start;letter-spacing:0px;word-spacing:0px;text-align:start;writing-mode:lr;" font-weight="bold" xml:space="preserve" font-size="18px" line-height="125%" font-stretch="normal" font-variant="normal" font-style="normal" font-family="Sans" fill="black"><flowRegion id="flowRegion5710"><rect id="rect5712" y="487.35" width="146.83" x="167.11" height="44.05"/></flowRegion><flowPara id="flowPara5714"/></flowRoot>
  <flowRoot id="flowRoot5716" style="writing-mode:lr-tb;letter-spacing:0px;text-anchor:start;word-spacing:0px;text-align:start;" line-height="125%" font-weight="bold" xml:space="preserve" font-size="18px" transform="translate(108.24721,15.58453)" font-stretch="normal" font-variant="normal" font-style="normal" font-family="Sans" fill="#ba2b65"><flowRegion id="flowRegion5718"><rect id="rect5720" height="48.945" width="148.23" y="485.95" x="168.51" fill="#ba2b65"/></flowRegion><flowPara id="flowPara5722">Eins pro Knoten</flowPara></flowRoot>
  <flowRoot id="flowRoot5728" style="writing-mode:lr-tb;letter-spacing:0px;text-anchor:start;word-spacing:0px;text-align:start;" line-height="125%" font-weight="bold" xml:space="preserve" font-size="18px" transform="translate(104.15433,15.845669)" font-stretch="normal" font-variant="normal" font-style="normal" font-family="Sans" fill="#7ab648"><flowRegion id="flowRegion5730"><rect id="rect5732" height="20.627" width="244.72" y="548.53" x="626.14" fill="#7ab648"/></flowRegion><flowPara id="flowPara5734">Anfrage an Module verteilt</flowPara></flowRoot>
  <flowRoot id="flowRoot5736" style="writing-mode:lr-tb;letter-spacing:0px;text-anchor:middle;word-spacing:0px;text-align:center;" line-height="125%" font-weight="bold" xml:space="preserve" font-size="18px" transform="translate(86.674016,24.91485)" font-stretch="normal" font-variant="normal" font-style="normal" font-family="Sans" fill="#7ab648"><flowRegion id="flowRegion5738"><rect id="rect5740" style="text-align:center;" height="66.775" width="173.75" y="453.09" x="504.13" fill="#7ab648"/></flowRegion><flowPara id="flowPara5742">Auflösung Modul-ID zu Adresse</flowPara></flowRoot>
 </g>
</svg>
